<svg xmlns="http://www.w3.org/2000/svg" viewBox="0 0 79.1 97"><defs><style>.cls-1{isolation:isolate;}.cls-2{fill:#bcbec0;opacity:0.5;mix-blend-mode:multiply;}.cls-3{fill:#c931c3;}.cls-4{fill:#e337db;}.cls-5{fill:#231f20;}.cls-5,.cls-6{fill-rule:evenodd;}.cls-6,.cls-7{fill:#fff;}.cls-8{fill:#fc56f5;}</style></defs><title>Numero 6</title><g class="cls-1"><g id="Camada_1" data-name="Camada 1"><path class="cls-2" d="M80.69,95c0,1.65-14.23,3-31.79,3s-31.78-1.34-31.78-3,14.23-3,31.78-3S80.69,93.36,80.69,95Z" transform="translate(-9.36 -1)"/><path class="cls-3" d="M63.93,56.21c.36,5.77,7.57,6.4,12,5.38C81.6,60.27,85.81,53,85,47.43c-.21-1.48-2.55-1.42-2.34.08.64,4.53-2.24,9.18-6.11,11.37-2.76,1.57-10,1.42-10.32-2.75-.1-1.5-2.43-1.43-2.33.08Z" transform="translate(-9.36 -1)"/><path class="cls-3" d="M84.34,48.07a5.82,5.82,0,0,0,4-2.45A1.16,1.16,0,0,0,87.83,44a1.19,1.19,0,0,0-1.58.47,3.76,3.76,0,0,1-2.58,1.32,1.17,1.17,0,0,0-.78,1.45,1.19,1.19,0,0,0,1.45.79Z" transform="translate(-9.36 -1)"/><path class="cls-3" d="M83.6,45.87c-1.1-.53-2.5-2.08-2.41-3.37.09-1.5-2.24-1.41-2.34.08-.13,2.06,1.86,4.49,3.64,5.34,1.35.65,2.47-1.4,1.11-2.05Z" transform="translate(-9.36 -1)"/><path class="cls-3" d="M84.24,47a7.27,7.27,0,0,0,.81-3.72,1.17,1.17,0,0,0-2.33.07,4.93,4.93,0,0,1-.53,2.54,1.17,1.17,0,0,0,2,1.11Z" transform="translate(-9.36 -1)"/><path class="cls-3" d="M33,63.39C30.59,68.66,19.35,57,15.4,52.82S9.12,41.31,11.81,36.35c.71-1.31,2.88-.43,2.16.89-2.18,4-1.12,9.39,1.74,12.8,2,2.43,13.37,13.84,15.08,10C31.41,58.69,33,63.39,33,63.39Z" transform="translate(-9.36 -1)"/><path class="cls-3" d="M12.23,37.19a5.8,5.8,0,0,1-2.85-3.68,1.16,1.16,0,0,1,1-1.31,1.18,1.18,0,0,1,1.32,1,3.76,3.76,0,0,0,2,2.14A1.16,1.16,0,0,1,13.87,37a1.19,1.19,0,0,1-1.64.23Z" transform="translate(-9.36 -1)"/><path class="cls-3" d="M13.7,35.39c1.22-.11,3.06-1.07,3.44-2.31.43-1.44,2.59-.54,2.15.89C18.7,36,16,37.53,14,37.7c-1.49.13-1.82-2.18-.32-2.31Z" transform="translate(-9.36 -1)"/><path class="cls-3" d="M12.7,36.23a7.29,7.29,0,0,1,.54-3.77,1.17,1.17,0,0,1,2.16.89A4.92,4.92,0,0,0,15,35.91a1.17,1.17,0,0,1-2.31.32Z" transform="translate(-9.36 -1)"/><path class="cls-4" d="M41.44,68,33.92,92.49a7.58,7.58,0,0,0-4.17-1,.47.47,0,0,0-.13.89l5.08,2.51a.94.94,0,0,0,1.15-.25l8.28-24.31Z" transform="translate(-9.36 -1)"/><path class="cls-4" d="M63.41,68l7.52,24.53a7.58,7.58,0,0,1,4.17-1,.47.47,0,0,1,.13.89l-5.08,2.51A.94.94,0,0,1,69,94.66L60.72,70.35Z" transform="translate(-9.36 -1)"/><path class="cls-4" d="M77.14,60.8a26.15,26.15,0,0,1-8.51,19.86c-5.68,5.33-10.8,8-18.86,8-10.19,0-17.28-3.86-22.45-10.4S19,63.86,19,53.52Q19,31.08,31.73,16T66.57,1c3,0,5.15.37,6.52,1.12a5.59,5.59,0,0,1,2.76,3.34,19.08,19.08,0,0,1,.7,5.64A20,20,0,0,1,76,16.51a9.56,9.56,0,0,1-1.41,3,4.57,4.57,0,0,1-2.35,1.53,22.91,22.91,0,0,1-6.82.71,27.06,27.06,0,0,0-9.34,1.64,21.34,21.34,0,0,0-7.11,4c-3.44,3.21-.62,8.1,2.28,8.1,7.75,0,12.63,2.57,18.16,7.7A23.07,23.07,0,0,1,77.14,60.8Z" transform="translate(-9.36 -1)"/><path class="cls-5" d="M36.74,36.4s2-3,4.92-3.33,5.72,1.85,5.72,1.85c.14.39.28.78-.28.8-.75.1-3-2.37-5.43-1.91A11.86,11.86,0,0,0,36.74,36.4Z" transform="translate(-9.36 -1)"/><path class="cls-6" d="M43.87,38.05c3.38,1.3,5.3,5.6,4.11,9.54s-4.77,6.13-8.22,4.72-5.3-5.61-4.2-9.56S40.41,36.73,43.87,38.05Z" transform="translate(-9.36 -1)"/><path class="cls-3" d="M41.91,53a6,6,0,0,1-2.27-.45c-3.55-1.36-5.51-5.8-4.37-9.92A7.55,7.55,0,0,1,39.05,38,6.09,6.09,0,0,1,44,37.76h0c3.59,1.4,5.52,5.84,4.29,9.92a7.46,7.46,0,0,1-3.75,4.75A6,6,0,0,1,41.91,53ZM41.76,38a5.37,5.37,0,0,0-2.44.58,7,7,0,0,0-3.47,4.31c-1.06,3.82.74,7.94,4,9.19a5.3,5.3,0,0,0,4.39-.15,6.79,6.79,0,0,0,3.44-4.37c1.12-3.72-.68-7.92-3.92-9.18A5.64,5.64,0,0,0,41.76,38Z" transform="translate(-9.36 -1)"/><path class="cls-5" d="M40,45a2.89,2.89,0,0,1,1.75,3.74A2.87,2.87,0,1,1,40,45Z" transform="translate(-9.36 -1)"/><path class="cls-6" d="M37.91,44.58a1.06,1.06,0,0,1,.63,1.36,1,1,0,1,1-.63-1.36Z" transform="translate(-9.36 -1)"/><path class="cls-6" d="M57.72,37.67c-3.32,1.48-4.93,5.93-3.61,9.78s5.28,5.69,8.6,4.22,4.94-6,3.53-9.88S61.05,36.1,57.72,37.67Z" transform="translate(-9.36 -1)"/><path class="cls-3" d="M60.33,52.48A6.27,6.27,0,0,1,57.87,52a7.53,7.53,0,0,1-4-4.42c-1.4-4,.3-8.61,3.76-10.15a6,6,0,0,1,5-.1,7.21,7.21,0,0,1,3.94,4.39c1.47,4-.18,8.6-3.68,10.25A6.16,6.16,0,0,1,60.33,52.48ZM60.2,37.41a5.55,5.55,0,0,0-2.35.53h0c-3.14,1.39-4.72,5.7-3.45,9.4a7,7,0,0,0,3.72,4.07,5.55,5.55,0,0,0,4.48,0c3.21-1.51,4.73-5.78,3.37-9.5a6.7,6.7,0,0,0-3.61-4A5.62,5.62,0,0,0,60.2,37.41Z" transform="translate(-9.36 -1)"/><path class="cls-5" d="M56.25,44.63A2.9,2.9,0,0,0,58.38,50,3,3,0,0,0,60,46.18,2.9,2.9,0,0,0,56.25,44.63Z" transform="translate(-9.36 -1)"/><path class="cls-5" d="M64.88,35.8s-2.08-2.93-5-3S54.23,35,54.23,35c-.23.34-.28.8.27.86.74,0,2.89-2.63,5.36-2.35A11.35,11.35,0,0,1,64.88,35.8Z" transform="translate(-9.36 -1)"/><path class="cls-6" d="M55.68,44.58a1.05,1.05,0,0,1,.64,1.36,1,1,0,1,1-.64-1.36Z" transform="translate(-9.36 -1)"/><ellipse class="cls-7" cx="41.64" cy="63.56" rx="8.79" ry="10.3"/><path class="cls-8" d="M72.52,17.22a1,1,0,0,0,0-1.89.95.95,0,0,0,0,1.89Z" transform="translate(-9.36 -1)"/><path class="cls-8" d="M73.52,13.15c.22-3,.3-7.28-2.64-9.06-2-1.2-4.88-.88-7.06-.5-1.19.21-.69,2,.5,1.82,1.61-.29,3.83-.55,5.35.17,2.5,1.18,2.14,5.32,2,7.57-.09,1.21,1.8,1.2,1.88,0Z" transform="translate(-9.36 -1)"/><path class="cls-8" d="M28.13,26.18A27.06,27.06,0,0,0,24,37.46c-.16,1.2,1.73,1.19,1.88,0a24.92,24.92,0,0,1,3.84-10.32c.66-1-1-2-1.62-1Z" transform="translate(-9.36 -1)"/><path class="cls-8" d="M30.64,25.41a.94.94,0,0,0,0-1.88.94.94,0,0,0,0,1.88Z" transform="translate(-9.36 -1)"/><path class="cls-8" d="M30.83,78.64a11.46,11.46,0,0,0,3.71,3.78c1,.65,2-1,1-1.63a9.35,9.35,0,0,1-3-3.1.94.94,0,0,0-1.63,1Z" transform="translate(-9.36 -1)"/><path class="cls-8" d="M73.33,66.35a.94.94,0,0,0,0-1.88.94.94,0,0,0,0,1.88Z" transform="translate(-9.36 -1)"/><path class="cls-8" d="M72,68a11.9,11.9,0,0,1-4.7,7.24c-1,.7,0,2.34,1,1.63a13.88,13.88,0,0,0,5.56-8.37c.26-1.18-1.55-1.68-1.81-.5Z" transform="translate(-9.36 -1)"/></g></g></svg>