<?xml version="1.0" encoding="utf-8"?>
<!-- Generator: Adobe Illustrator 22.0.1, SVG Export Plug-In . SVG Version: 6.00 Build 0)  -->
<svg version="1.1" id="Camada_1" xmlns="http://www.w3.org/2000/svg" xmlns:xlink="http://www.w3.org/1999/xlink" x="0px" y="0px"
	 viewBox="0 0 100 100" style="enable-background:new 0 0 100 100;" xml:space="preserve">
<style type="text/css">
	.st0{opacity:0.5;fill:#BCBEC0;}
	.st1{fill:#E670A7;}
	.st2{fill:#FF7CBA;}
	.st3{fill-rule:evenodd;clip-rule:evenodd;fill:#FFFFFF;}
	.st4{fill-rule:evenodd;clip-rule:evenodd;fill:#231F20;}
	.st5{fill:#231F20;}
	.st6{fill:#FFB5D8;}
</style>
<g>
	<path class="st0" d="M90.9,96.4c0,1.5-18.4,2.8-41.1,2.8c-22.7,0-41.1-1.2-41.1-2.8c0-1.5,18.4-2.8,41.1-2.8
		C72.4,93.6,90.9,94.8,90.9,96.4z"/>
	<g>
		<g>
			<g>
				<g>
					<path class="st1" d="M66.5,39.7C64,45.7,71,49.9,76,51.1c6.4,1.5,14.3-3.8,16.3-9.9c0.5-1.6-1.9-2.7-2.4-1.1
						C88.2,45,83,48.3,78,48.6c-3.6,0.2-10.9-3.5-9.1-7.9C69.5,39.2,67.1,38.1,66.5,39.7L66.5,39.7z"/>
				</g>
				<g>
					<path class="st1" d="M91.2,41.5c1.8,0.5,3.6,0.5,5.2-0.5c0.6-0.4,0.7-1.3,0.3-1.8c-0.4-0.6-1.2-0.7-1.8-0.3
						c-1,0.6-2.2,0.3-3.3,0.1c-0.7-0.2-1.4,0.4-1.5,1.1C90,40.7,90.5,41.3,91.2,41.5L91.2,41.5z"/>
				</g>
				<g>
					<path class="st1" d="M91.6,38.9c-0.9-1.1-1.5-3.3-0.8-4.6c0.8-1.5-1.6-2.5-2.4-1.1c-1.2,2-0.3,5.5,1.1,7.2
						C90.5,41.7,92.6,40.2,91.6,38.9L91.6,38.9z"/>
				</g>
				<g>
					<path class="st1" d="M91.6,40.4c1.2-0.9,2.1-2,2.7-3.4c0.7-1.5-1.7-2.6-2.4-1.1c-0.4,0.9-1,1.7-1.8,2.3
						C88.7,39.2,90.2,41.3,91.6,40.4L91.6,40.4z"/>
				</g>
			</g>
			<path class="st2" d="M73.6,73.4c3.5,0,6,0.4,7.5,1.2c1.5,0.8,2.5,2,3,3.7c0.5,1.7,0.8,3.8,0.8,6.5c0,2.7-0.3,4.8-0.8,6.4
				c-0.6,1.6-1.5,2.7-2.7,3.3c-1.9,1-4.5,1.5-7.9,1.5H23.5c-3.1,0-5.7-1.1-7.9-3.4c-2.2-2.3-3.3-5-3.3-8c0-4.6,1.6-8.8,4.8-12.7
				c3.2-3.9,7-7.2,11.5-9.9c4.5-2.8,9-5.5,13.5-8.2c4.5-2.7,8.3-5.7,11.5-9.1c3.2-3.4,4.8-7,4.8-10.8c0-0.8-0.3-1.8-0.9-3.2
				c-0.6-1.4-1.3-2.5-2-3.4c-0.7-0.9-1.8-1.7-3.4-2.5c-1.5-0.8-3.7-1.1-6.4-1.1c-2.7,0-5.1,1-7.1,3c-2,2-3.1,4-3.4,5.9l-0.5,2.9v0.8
				c0,1.9-0.1,3.3-0.2,4.2c-0.1,0.9-0.5,2-1.2,3.2c-1.3,2-4.6,3.1-9.9,3.1c-5.9,0-9.5-1.6-10.6-4.8c-0.4-1.4-0.6-3.5-0.6-6.5
				c0-8.8,3.2-16.8,9.5-23.8C28.1,4.5,36.4,1,46.6,1c10.2,0,18.5,3.5,24.9,10.6c6.4,7.1,9.6,15.2,9.6,24.3c0,4.8-1.1,9.4-3.2,13.8
				c-2.1,4.3-4.7,7.8-7.6,10.4c-6.3,5.6-11.9,9.4-16.8,11.3l-3.2,1.3v0.6H73.6z"/>
			<g>
				<g>
					<path class="st3" d="M74,16.7c-3.2,1.9-4.3,6.6-2.5,10.3c1.9,3.8,6,5.2,9.2,3.2c3.2-1.9,4.3-6.6,2.5-10.3
						C81.3,16.2,77.2,14.7,74,16.7z"/>
					<path class="st1" d="M77.5,31.5c-0.6,0-1.2-0.1-1.8-0.3c-1.9-0.6-3.6-2-4.6-4.1c-1.9-4-0.7-8.8,2.6-10.8c1.5-0.9,3.3-1.2,5-0.7
						c2,0.6,3.7,2,4.7,4.1c1.8,3.9,0.6,8.8-2.6,10.8C79.8,31.2,78.7,31.5,77.5,31.5z M77,16.2c-1,0-2,0.3-2.9,0.8l0,0
						c-3.1,1.8-4.1,6.2-2.4,9.9c0.9,1.9,2.4,3.2,4.2,3.7c1.5,0.4,3.1,0.2,4.5-0.6c3-1.8,4.1-6.3,2.4-9.9c-0.9-1.8-2.5-3.2-4.3-3.7
						C78.1,16.2,77.6,16.2,77,16.2z"/>
				</g>
				<path class="st4" d="M78.3,17.8c-1.5,0.8-2.1,2.7-1.3,4.2c0.8,1.5,2.7,2,4.2,1.2c1.5-0.7,2-2.6,1.2-4.1S79.7,17,78.3,17.8z"/>
				<path class="st4" d="M80.2,13.9c0,0-2.1-2.3-4.6-2.1C73.1,12,71,14.2,71,14.2c-0.1,0.3-0.1,0.7,0.3,0.7c0.6-0.1,2.2-2.4,4.3-2.4
					C77.8,12.5,80.2,13.9,80.2,13.9z"/>
				<path class="st5" d="M80.2,34.4c-0.1,0.1-0.2,0.1-0.3,0.2c0,0,0,0-0.1,0c-0.2,0.1-0.5,0.3-0.7,0.4c-0.5,0.3-1.1,0.6-1.8,0.8h0
					C77.2,35.9,77,36,76.8,36c0,0-0.1,0-0.1,0c-0.2,0.1-0.4,0.1-0.7,0.2c-0.6,0.2-1.3,0.3-1.9,0.4v0c-0.2,0-0.4,0.1-0.7,0.1
					c-0.2,0-0.4,0-0.5,0.1c0,0,0,0,0,0c-0.1,0.3-0.2,0.7-0.4,0.9c0.2-0.2,0.3-0.6,0.4-0.9c0,0,0,0,0,0c-0.7,0.1-1.4,0.1-2,0.1
					c-0.3,0-0.5,0-0.8,0c0,0,0,0,0,0c-0.3,0-0.5,0-0.7,0h0c-0.2,0.3-0.5,0.5-0.8,0.7c0.3-0.2,0.5-0.4,0.8-0.7h0
					c-0.6,0-1.2-0.1-1.8-0.2c-0.2,0-0.5-0.1-0.7-0.2c0,0,0,0,0,0c-0.2-0.1-0.4-0.1-0.6-0.2c0,0.1,0.1,0.3,0.1,0.4c0,0,0,0,0,0
					c0.1,0.1,0.1,0.3,0.2,0.4c0,0,0,0,0,0c0.1,0.1,0.1,0.2,0.2,0.4c0,0,0,0,0,0c0.1,0.1,0.2,0.2,0.3,0.3c0,0,0,0,0,0
					c0.1,0.1,0.2,0.2,0.3,0.3c0,0,0,0,0,0c0.1,0.1,0.2,0.2,0.4,0.3c0,0,0,0,0,0c0.1,0.1,0.3,0.2,0.4,0.3c0,0,0,0,0,0
					c0.1,0.1,0.3,0.2,0.5,0.3c0,0,0,0,0,0v0c0.5,0.3,1.2,0.5,1.8,0.6l0,0c0,0,0,0,0,0c0.7,0.2,1.5,0.3,2.4,0.2c0,0,0,0,0,0v0
					c0.4,0,0.8,0,1.2-0.1c0.4-0.1,0.8-0.1,1.1-0.2c0,0,0,0,0,0c0,0,0,0,0.1,0c0.2,0,0.4-0.1,0.5-0.2c0.6-0.2,1.2-0.5,1.7-0.8
					c0,0,0,0,0,0c0,0,0,0,0,0c0,0,0,0,0,0c0.6-0.3,1.1-0.7,1.5-1.1l0,0l0,0c0.1-0.1,0.1-0.1,0.2-0.2c0,0,0,0,0,0
					c0.1-0.1,0.1-0.1,0.2-0.2c0,0,0,0,0,0c0.1-0.1,0.1-0.1,0.2-0.2c0,0,0,0,0,0c0-0.1,0.1-0.1,0.1-0.2c0,0,0,0,0,0
					c0-0.1,0.1-0.1,0.1-0.2c0,0,0,0,0,0c0-0.1,0.1-0.1,0.1-0.2c0,0,0,0,0-0.1c0-0.1,0.1-0.1,0.1-0.2c0,0,0,0,0-0.1
					c0-0.1,0.1-0.1,0.1-0.2c0,0,0-0.1,0-0.1c0-0.1,0-0.1,0.1-0.2c0,0,0-0.1,0-0.1c0,0,0-0.1,0-0.1c0,0,0-0.1,0-0.1c0,0,0-0.1,0-0.1
					c0,0,0-0.1,0-0.1c0,0,0-0.1,0-0.1c0,0,0-0.1,0-0.1c0,0,0-0.1,0-0.1c0,0,0-0.1,0-0.1c0,0,0-0.1,0-0.1c0-0.1,0-0.1,0-0.2
					c0,0,0-0.1,0-0.1c0-0.1,0-0.2,0-0.3C80.4,34.2,80.3,34.3,80.2,34.4z"/>
				<g>
					<path class="st4" d="M58.1,16.6c0,0,1.8-3.7,5-4.4c3.3-0.7,6.7,1.4,6.7,1.4c0.3,0.4,0.4,0.8-0.2,1c-0.8,0.1-3.7-2.3-6.4-1.5
						C60.6,13.9,58.1,16.6,58.1,16.6z"/>
					<g>
						<path class="st3" d="M66.3,17.6c3.9,1,6.6,5.7,5.9,10.2c-0.8,4.6-4.7,7.4-8.8,6.3c-4-1-6.6-5.7-5.9-10.2
							C58.4,19.3,62.3,16.5,66.3,17.6z"/>
						<path class="st1" d="M65.2,34.6c-0.6,0-1.2-0.1-1.9-0.3c-4.1-1-6.9-5.8-6.1-10.6c0.4-2.4,1.8-4.5,3.7-5.7
							c1.7-1,3.6-1.3,5.5-0.8c4.1,1.1,6.9,5.9,6.1,10.6c-0.4,2.5-1.8,4.5-3.6,5.7C67.8,34.3,66.5,34.6,65.2,34.6z M64.6,17.7
							c-1.2,0-2.3,0.3-3.3,1c-1.7,1.1-3,3-3.4,5.3c-0.7,4.5,1.8,8.9,5.6,9.8c1.7,0.5,3.5,0.2,5-0.7c1.7-1.1,2.9-3,3.3-5.3
							c0.7-4.4-1.9-8.9-5.6-9.8l0,0C65.7,17.7,65.2,17.7,64.6,17.7z"/>
					</g>
					<path class="st4" d="M68.7,19.8c1.9,0.4,3,2.2,2.6,4.1c-0.4,1.9-2.1,3-4,2.6s-3.1-2.2-2.7-4.1C65,20.6,66.8,19.4,68.7,19.8z"/>
					<path class="st3" d="M65.6,19.9c0.7,0.2,1.1,0.9,1,1.6c-0.2,0.7-0.8,1.2-1.5,1c-0.7-0.2-1.2-0.9-1-1.6S64.9,19.7,65.6,19.9z"/>
				</g>
				<path class="st3" d="M77.6,18.5c0.7,0.2,1.1,0.9,1,1.6c-0.2,0.7-0.8,1.2-1.5,1s-1.2-0.9-1-1.6C76.2,18.8,76.9,18.3,77.6,18.5z"
					/>
			</g>
			<path class="st1" d="M93.5,58.6c-0.2-0.7-0.9-1.1-1.6-1c-0.7,0.1-1.3-0.1-1.9-0.5c0.8-0.4,1.5-0.9,2.1-1.4
				c1.3-1.1-0.5-3.1-1.8-1.9c-0.5,0.5-1,0.8-1.6,1.1c0.1-1.2,0.5-2.4,1.3-3c1.4-1-0.4-3-1.8-1.9c-1.9,1.4-2.5,4.9-1.9,7
				c0,0.1,0.1,0.2,0.1,0.3c-3.5,3.5-9.3,4.3-13.9,2.7c-2.3-0.8-5.2-4.8-6.1-7c-0.1,0.8-0.5,1.4-1.7,2.6c1.2,2.3,3.2,4.5,5,5.9
				c5.2,3.8,14.1,2.3,18.5-2.2c1.3,0.8,2.7,1.3,4.3,1.1C93.2,60.1,93.6,59.3,93.5,58.6z"/>
		</g>
		<g>
			<g>
				<g>
					<path class="st6" d="M56.3,7.5c-6.2-3.3-12.9-2.8-19.4-0.7c-1.3,0.4-0.7,2.4,0.5,2c6-1.9,12.1-2.5,17.9,0.5
						C56.4,9.9,57.5,8.1,56.3,7.5L56.3,7.5z"/>
				</g>
				<g>
					<path class="st6" d="M32.4,11.2c1.3,0,1.3-2,0-2C31.1,9.2,31.1,11.2,32.4,11.2L32.4,11.2z"/>
				</g>
			</g>
			<g>
				<path class="st6" d="M22.7,71.9c-4.2,4.1-9.3,14.4-2.9,18.9c1.1,0.8,2.1-1,1-1.8c-2.5-1.7-2-5.4-1.3-7.9c0.8-3,2.5-5.6,4.7-7.8
					C25.1,72.5,23.7,71,22.7,71.9L22.7,71.9z"/>
			</g>
			<g>
				<path class="st6" d="M24.5,93.5c1.3,0,1.3-2,0-2C23.2,91.4,23.2,93.5,24.5,93.5L24.5,93.5z"/>
			</g>
		</g>
	</g>
</g>
</svg>
