<svg xmlns="http://www.w3.org/2000/svg" viewBox="0 0 72.87 94.31"><defs><style>.cls-1{isolation:isolate;}.cls-2{fill:#bcbec0;opacity:0.5;mix-blend-mode:multiply;}.cls-3{fill:#2c6be8;}.cls-4{fill:#3075ff;}.cls-5{fill:#fff;}.cls-5,.cls-6{fill-rule:evenodd;}.cls-6,.cls-7{fill:#231f20;}.cls-8{fill:#57a3ff;}</style></defs><title>Numero 5</title><g class="cls-1"><g id="Camada_1" data-name="Camada 1"><path class="cls-2" d="M77.14,94.28c0,1.67-13.41,3-30,3s-30-1.36-30-3,13.42-3,30-3S77.14,92.6,77.14,94.28Z" transform="translate(-16.6 -3)"/><path class="cls-3" d="M59.41,51.5c-.45,6.73,7.79,8.55,13,8,6.8-.67,12.76-8.43,12.7-15,0-1.73-2.73-2-2.71-.26,0,5.34-4,10.29-8.79,12.24-3.42,1.39-11.84.12-11.52-4.75.12-1.75-2.59-2-2.71-.26Z" transform="translate(-16.6 -3)"/><path class="cls-3" d="M84.25,45.17a6.82,6.82,0,0,0,5-2.23A1.36,1.36,0,1,0,87,41.35a4.47,4.47,0,0,1-3.19,1.13A1.36,1.36,0,0,0,82.69,44a1.39,1.39,0,0,0,1.56,1.13Z" transform="translate(-16.6 -3)"/><path class="cls-3" d="M83.72,42.51c-1.19-.78-2.57-2.77-2.28-4.26.34-1.72-2.37-2-2.71-.26-.47,2.37,1.47,5.47,3.4,6.73,1.46,1,3.06-1.25,1.59-2.21Z" transform="translate(-16.6 -3)"/><path class="cls-3" d="M84.29,43.93a8.51,8.51,0,0,0,1.51-4.19,1.37,1.37,0,0,0-2.72-.26,5.6,5.6,0,0,1-1,2.85,1.37,1.37,0,0,0,2.21,1.6Z" transform="translate(-16.6 -3)"/><path class="cls-3" d="M57,47c5.36,1.43,4.6,8.34,2.81,12.29-2.32,5.12-10,7.71-15.06,5.91-1.35-.47-.85-2.66.51-2.18,4.15,1.46,9.08-.37,11.87-3.6,2-2.3,3.23-9.2-.65-10.24-1.39-.37-.88-2.56.52-2.18Z" transform="translate(-16.6 -3)"/><path class="cls-3" d="M45.49,64.64a5.56,5.56,0,0,1-3.05,3.27,1.13,1.13,0,0,1-1.4-.74,1.14,1.14,0,0,1,.74-1.4,3.64,3.64,0,0,0,1.73-2.18,1.12,1.12,0,1,1,2,1Z" transform="translate(-16.6 -3)"/><path class="cls-3" d="M43.56,63.52c-.29-1.13-1.48-2.74-2.71-2.9-1.44-.19-.91-2.37.51-2.18,2,.26,3.88,2.59,4.34,4.43.36,1.39-1.78,2.06-2.14.65Z" transform="translate(-16.6 -3)"/><path class="cls-3" d="M44.51,64.34a6.89,6.89,0,0,1-3.66.07,1.12,1.12,0,0,1,.52-2.18,4.68,4.68,0,0,0,2.49,0,1.12,1.12,0,0,1,.65,2.14Z" transform="translate(-16.6 -3)"/><path class="cls-4" d="M33.78,3l18.53.12H63.76A35.89,35.89,0,0,1,68,3.3,10.08,10.08,0,0,1,71.2,4.46q3.28,1.71,3.29,9.75c0,4.88-1,7.84-3,8.9a8.91,8.91,0,0,1-3,1.16,31.25,31.25,0,0,1-4,.18H43.17c-.17,1-.57,4.06-1.22,9.26a26.77,26.77,0,0,1,4.26-.24q11.58,0,20.84,8.71a28.14,28.14,0,0,1,9.26,21.33A30.11,30.11,0,0,1,67.54,85.2a29.11,29.11,0,0,1-21.81,9.08,37.78,37.78,0,0,1-20.48-5.73,19,19,0,0,1-3-2.31l-1-.86q-4.64-4-4.63-7.31t4.51-7.92c2.44-2.68,4.79-4,7.07-4s5,1.3,8.16,3.9c1.46,1.7,4,2.56,7.62,2.56s6.29-.77,8-2.32a8.07,8.07,0,0,0,2.62-6.4,8,8,0,0,0-2.86-6.46A9.94,9.94,0,0,0,45.24,55a7.91,7.91,0,0,0-5.85,2.19A10.23,10.23,0,0,1,32.75,60a16.7,16.7,0,0,1-7.68-2.31A24.84,24.84,0,0,1,19.4,54a4.28,4.28,0,0,1-1.34-3q0-1.59,2.44-19.62t2.56-18.77a14.48,14.48,0,0,1,.85-2.56,15.84,15.84,0,0,1,1.77-3.29,9,9,0,0,1,3.17-2.62A10.17,10.17,0,0,1,33.78,3Z" transform="translate(-16.6 -3)"/><path class="cls-5" d="M65.65,34.68c-2.83,1.67-3.83,5.83-2.25,9.16s5.33,4.58,8.16,2.91,3.83-5.91,2.16-9.24S68.48,32.93,65.65,34.68Z" transform="translate(-16.6 -3)"/><path class="cls-3" d="M68.88,47.79a5.76,5.76,0,0,1-1.64-.24A6.84,6.84,0,0,1,63.13,44c-1.67-3.51-.61-7.8,2.36-9.55a5.52,5.52,0,0,1,4.5-.6,6.62,6.62,0,0,1,4,3.56c1.73,3.46.71,7.79-2.28,9.63A5.55,5.55,0,0,1,68.88,47.79ZM68.4,34.2a4.94,4.94,0,0,0-2.59.74h0c-2.66,1.57-3.63,5.59-2.12,8.77A6.28,6.28,0,0,0,67.41,47a5,5,0,0,0,4-.48c2.72-1.68,3.64-5.65,2-8.84a6,6,0,0,0-3.63-3.25A5.35,5.35,0,0,0,68.4,34.2Z" transform="translate(-16.6 -3)"/><path class="cls-6" d="M70,37.42a2.88,2.88,0,0,0,2.7,5.09,3,3,0,0,0,1.2-4A2.9,2.9,0,0,0,70,37.42Z" transform="translate(-16.6 -3)"/><path class="cls-6" d="M71.89,32.27s-2.16-2.42-4.82-2.17a8.37,8.37,0,0,0-4.83,2.5c-.17.33-.17.75.33.75.67-.08,2.33-2.66,4.58-2.66A10.22,10.22,0,0,1,71.89,32.27Z" transform="translate(-16.6 -3)"/><path class="cls-6" d="M50.41,35.21s1.72-3.35,4.7-4,6.13,1.25,6.13,1.25c.19.38.38.77-.19.86-.77.19-3.36-2.11-5.85-1.34A12.31,12.31,0,0,0,50.41,35.21Z" transform="translate(-16.6 -3)"/><path class="cls-5" d="M58,36.07c3.64,1,6.14,5.18,5.37,9.4s-4.22,6.9-8,5.84-6.13-5.17-5.46-9.39S54.24,35.11,58,36.07Z" transform="translate(-16.6 -3)"/><path class="cls-3" d="M57,51.85a6.3,6.3,0,0,1-1.71-.24c-3.83-1-6.38-5.35-5.68-9.74A7.86,7.86,0,0,1,53,36.59a6.37,6.37,0,0,1,5.07-.81h0c3.87,1,6.38,5.39,5.59,9.74a7.7,7.7,0,0,1-3.32,5.35A6.09,6.09,0,0,1,57,51.85Zm-.59-15.67a5.7,5.7,0,0,0-3.11.92A7.24,7.24,0,0,0,50.23,42c-.65,4.08,1.7,8.14,5.24,9.05A5.51,5.51,0,0,0,60,50.36a7.15,7.15,0,0,0,3-4.94c.72-4-1.63-8.13-5.15-9.05A5.7,5.7,0,0,0,56.43,36.18Z" transform="translate(-16.6 -3)"/><path class="cls-6" d="M60.74,39.56a3.07,3.07,0,1,1-3.57,2.33A3,3,0,0,1,60.74,39.56Z" transform="translate(-16.6 -3)"/><path class="cls-5" d="M58.52,39.82a1.22,1.22,0,0,1,.91,1.48,1.21,1.21,0,1,1-.91-1.48Z" transform="translate(-16.6 -3)"/><path class="cls-5" d="M69.78,37.38a1.25,1.25,0,1,1-1.45.95A1.24,1.24,0,0,1,69.78,37.38Z" transform="translate(-16.6 -3)"/><path class="cls-7" d="M72.51,56.9A3.26,3.26,0,0,1,70.25,60c-2.68.75-4.94-1.78-5.52-4.07-.76-3,3.7-2,5.43-3.15a1.71,1.71,0,0,1,1-.41c.57,0,.89.67,1,1.22A9.42,9.42,0,0,1,72.51,56.9Z" transform="translate(-16.6 -3)"/><path class="cls-8" d="M65.64,7.46a1,1,0,0,0,0-1.9,1,1,0,0,0,0,1.9Z" transform="translate(-16.6 -3)"/><path class="cls-8" d="M70.43,70.5a18.64,18.64,0,0,1-6.07,9.64c-.94.79.41,2.13,1.34,1.34A20.23,20.23,0,0,0,72.26,71a1,1,0,0,0-1.83-.5Z" transform="translate(-16.6 -3)"/><path class="cls-8" d="M72.27,68a1,1,0,0,0,0-1.9,1,1,0,0,0,0,1.9Z" transform="translate(-16.6 -3)"/><path class="cls-8" d="M22.26,73.07a5.37,5.37,0,0,0,.2,9.66c1.1.51,2.07-1.13,1-1.64a3.48,3.48,0,0,1-.2-6.38c1.08-.57.12-2.21-1-1.64Z" transform="translate(-16.6 -3)"/><path class="cls-8" d="M21,46.42c-.33,1.47-.87,3.83.12,5.14a5.09,5.09,0,0,0,1.77,1.18l3,1.66c1.08.59,2-1,1-1.64s-2.45-1.33-3.67-2-.62-2.7-.37-3.82-1.56-1.7-1.83-.51Z" transform="translate(-16.6 -3)"/><path class="cls-8" d="M69.14,8.05c1.8.15,1.28,4.16,1.27,5.46,0,1.59,0,3.18-.11,4.77-.07,1.22,1.83,1.22,1.9,0,.14-2.28.13-4.57.12-6.85s-.37-5-3.18-5.28c-1.22-.1-1.21,1.8,0,1.9Z" transform="translate(-16.6 -3)"/></g></g></svg>