<svg xmlns="http://www.w3.org/2000/svg" viewBox="0 0 81.67 92.39"><defs><style>.cls-1{isolation:isolate;}.cls-2{fill:#bcbec0;opacity:0.5;mix-blend-mode:multiply;}.cls-3{fill:#38aad6;}.cls-4{fill:#41c2f4;}.cls-5{fill:#231f20;}.cls-5,.cls-6{fill-rule:evenodd;}.cls-6{fill:#fff;}.cls-7{fill:#61ddff;}</style></defs><title>Numero 0</title><g class="cls-1"><g id="Camada_1" data-name="Camada 1"><path class="cls-2" d="M81.42,93.43c0,1.63-14.13,3-31.55,3s-31.55-1.33-31.55-3,14.12-3,31.55-3S81.42,91.79,81.42,93.43Z" transform="translate(-9.03 -4)"/><path class="cls-3" d="M75.42,40.31c2.81,4.49,8.9,1.87,12-.87,4-3.55,4.25-11.24,1.19-15.4-.81-1.1-2.67,0-1.85,1.08,2.49,3.38,2.2,8.38,0,11.83-1.54,2.47-7.49,5.53-9.52,2.28-.73-1.17-2.59-.09-1.85,1.08Z" transform="translate(-9.03 -4)"/><path class="cls-3" d="M88.33,24.85a5.36,5.36,0,0,0,2.14-3.7,1.07,1.07,0,1,0-2.14,0,3.52,3.52,0,0,1-1.51,2.19,1.07,1.07,0,1,0,1.51,1.51Z" transform="translate(-9.03 -4)"/><path class="cls-3" d="M86.77,23.4c-1.11.06-2.91-.58-3.4-1.66-.58-1.25-2.42-.17-1.85,1.08.79,1.72,3.45,2.81,5.25,2.72,1.38-.07,1.38-2.21,0-2.14Z" transform="translate(-9.03 -4)"/><path class="cls-3" d="M87.79,24a6.62,6.62,0,0,0-1-3.35A1.07,1.07,0,0,0,85,21.77,4.45,4.45,0,0,1,85.65,24a1.07,1.07,0,0,0,2.14,0Z" transform="translate(-9.03 -4)"/><path class="cls-3" d="M11.34,23.5c-2.15,4.18-3.29,8.78-1.21,13.21,1.83,3.87,5.74,7.28,10.2,7,1.34-.07,1.34-2.15,0-2.08-3.67.2-6.4-2.5-8.12-5.48-2.17-3.74-.91-8.06.92-11.65.61-1.18-1.18-2.24-1.79-1Z" transform="translate(-9.03 -4)"/><path class="cls-3" d="M10.3,19.8a5,5,0,0,0,1.1,4.75c.91,1,2.38-.5,1.46-1.47a2.84,2.84,0,0,1-.56-2.73c.31-1.3-1.69-1.85-2-.55Z" transform="translate(-9.03 -4)"/><path class="cls-3" d="M12.39,25.06a6.18,6.18,0,0,0,5.78-2.23c.82-1.06-1-2.09-1.8-1-1,1.25-2.54,1.31-4,1.2s-1.33,2,0,2.08Z" transform="translate(-9.03 -4)"/><path class="cls-3" d="M13.7,23.83a4.08,4.08,0,0,1,2.08-2.65c1.24-.47.7-2.48-.55-2a6.23,6.23,0,0,0-3.53,4.1c-.46,1.26,1.55,1.8,2,.55Z" transform="translate(-9.03 -4)"/><path class="cls-3" d="M37.18,69.32,35,91.74a6.66,6.66,0,0,0-3.76-.11.41.41,0,0,0,0,.78L36,93.7a.84.84,0,0,0,1-.42L39.9,70.92Z" transform="translate(-9.03 -4)"/><path class="cls-3" d="M63.5,69.32l2.23,22.42a6.63,6.63,0,0,1,3.75-.11.41.41,0,0,1,0,.78L64.64,93.7a.83.83,0,0,1-1-.42L60.77,70.92Z" transform="translate(-9.03 -4)"/><path class="cls-4" d="M26.83,15.93a25.25,25.25,0,0,1,9.23-7A31.61,31.61,0,0,1,49.82,6.07,31.4,31.4,0,0,1,63.48,8.86a25.93,25.93,0,0,1,9.17,6.91A33.78,33.78,0,0,1,78,25.47a56.89,56.89,0,0,1,3.4,19.72q0,18.69-8.84,29.62a24.4,24.4,0,0,1-9.11,6.82,32.14,32.14,0,0,1-13.54,2.68,32.36,32.36,0,0,1-13.65-2.73A25.76,25.76,0,0,1,27,74.81a33.88,33.88,0,0,1-5.5-9.6,57.65,57.65,0,0,1-3.28-20.12,51.72,51.72,0,0,1,2.66-17.65A41.29,41.29,0,0,1,26.83,15.93Zm22.9,45.73Q59,61.66,59,45.59V45.1q0-16.49-9.18-16.48T40.65,45.14Q40.65,61.66,49.73,61.66Z" transform="translate(-9.03 -4)"/><path class="cls-5" d="M34.23,7.26s2.09-3,5-3.25,5.65,2.1,5.65,2.1c.21.31.42.73-.21.73s-2.93-2.41-5.44-2.09A12.6,12.6,0,0,0,34.23,7.26Z" transform="translate(-9.03 -4)"/><path class="cls-6" d="M42.59,10.66c3.35,1.46,5.13,5.86,3.87,9.83s-5,5.86-8.47,4.39-5.12-5.75-3.87-9.72S39.14,9.3,42.59,10.66Z" transform="translate(-9.03 -4)"/><path class="cls-3" d="M40.32,25.73a6.32,6.32,0,0,1-2.47-.51c-3.56-1.45-5.39-6-4.08-10.17a7.56,7.56,0,0,1,3.87-4.56,6.31,6.31,0,0,1,5.09-.17h0c3.54,1.55,5.37,6.16,4.07,10.27a7.43,7.43,0,0,1-3.9,4.56A6.21,6.21,0,0,1,40.32,25.73Zm0-15.13a5.59,5.59,0,0,0-2.42.55,6.73,6.73,0,0,0-3.48,4.12c-1.18,3.74.49,8,3.66,9.27a5.47,5.47,0,0,0,4.48,0,6.71,6.71,0,0,0,3.5-4.12c1.19-3.77-.45-8-3.66-9.38A5.57,5.57,0,0,0,40.37,10.6Z" transform="translate(-9.03 -4)"/><path class="cls-5" d="M43.68,17a3.32,3.32,0,0,1,2,4.28A3.34,3.34,0,1,1,39.39,19,3.29,3.29,0,0,1,43.68,17Z" transform="translate(-9.03 -4)"/><path class="cls-6" d="M40.51,16.9a1.1,1.1,0,0,1,.66,1.42,1.07,1.07,0,0,1-1.41.65,1.05,1.05,0,0,1-.66-1.41A1.09,1.09,0,0,1,40.51,16.9Z" transform="translate(-9.03 -4)"/><path class="cls-5" d="M65.5,7.26s-2-3-4.91-3.25-5.76,2.1-5.76,2.1c-.1.31-.31.73.32.83s2.93-2.51,5.44-2.19A11.8,11.8,0,0,1,65.5,7.26Z" transform="translate(-9.03 -4)"/><path class="cls-6" d="M57.44,10.76c-3.45,1.47-5.12,5.86-3.87,9.84s5,5.85,8.47,4.39,5.13-5.75,3.87-9.73S60.89,9.3,57.44,10.76Z" transform="translate(-9.03 -4)"/><path class="cls-3" d="M59.71,25.83a6.36,6.36,0,0,1-2.59-.56,7.55,7.55,0,0,1-3.9-4.56c-1.33-4.23.46-8.75,4.08-10.28a6.09,6.09,0,0,1,5,.07,7.63,7.63,0,0,1,4,4.65c1.3,4.13-.48,8.6-4.07,10.17A6.36,6.36,0,0,1,59.71,25.83Zm0-15.17a5.49,5.49,0,0,0-2.13.44c-3.22,1.37-4.86,5.58-3.66,9.39a6.76,6.76,0,0,0,3.51,4.11,5.48,5.48,0,0,0,4.47,0c3.19-1.4,4.84-5.56,3.66-9.28A6.91,6.91,0,0,0,62,11.16,5.5,5.5,0,0,0,59.71,10.66Z" transform="translate(-9.03 -4)"/><path class="cls-5" d="M56.35,17.05a3.3,3.3,0,0,0-2,4.29,3.4,3.4,0,0,0,4.39,2A3.27,3.27,0,0,0,60.64,19,3.22,3.22,0,0,0,56.35,17.05Z" transform="translate(-9.03 -4)"/><path class="cls-6" d="M60.29,16.9a1.1,1.1,0,0,1,.65,1.42,1.07,1.07,0,0,1-1.41.65,1.06,1.06,0,0,1-.65-1.41A1.08,1.08,0,0,1,60.29,16.9Z" transform="translate(-9.03 -4)"/><path class="cls-7" d="M75.13,56.79A23.74,23.74,0,0,1,63,74.41c-1,.58-.11,2.2,1,1.62A25.73,25.73,0,0,0,77,56.79c.16-1.19-1.71-1.18-1.87,0Z" transform="translate(-9.03 -4)"/><path class="cls-7" d="M59.54,77.57a.94.94,0,0,0,0-1.87.94.94,0,0,0,0,1.87Z" transform="translate(-9.03 -4)"/><path class="cls-7" d="M23.9,46.65c0-7.81.24-16.76,5.25-23.21.72-.94-.59-2.28-1.33-1.33C22.47,29,22,38.25,22,46.65a.94.94,0,0,0,1.87,0Z" transform="translate(-9.03 -4)"/><path class="cls-7" d="M31.51,20.86a.94.94,0,0,0,0-1.87.94.94,0,0,0,0,1.87Z" transform="translate(-9.03 -4)"/></g></g></svg>