<svg xmlns="http://www.w3.org/2000/svg" viewBox="0 0 63.44 97.39"><defs><style>.cls-1{isolation:isolate;}.cls-2{fill:#bcbec0;opacity:0.5;mix-blend-mode:multiply;}.cls-3{fill:#e61830;}.cls-4{fill:#d1d3d4;}.cls-5{fill:#ff1b35;}.cls-6{fill:#231f20;}.cls-6,.cls-7{fill-rule:evenodd;}.cls-7{fill:#fff;}.cls-8{fill:#ff6b7c;}</style></defs><title>Numero 9</title><g class="cls-1"><g id="Camada_1" data-name="Camada 1"><path class="cls-2" d="M79.26,96.57c0,1-13.28,1.82-29.67,1.82s-29.68-.82-29.68-1.82,13.29-1.83,29.68-1.83S79.26,95.56,79.26,96.57Z" transform="translate(-17.87 -1)"/><path class="cls-3" d="M72,27.23c5.33,1.8,8.54-4.44,9.24-8.77C82.1,12.85,77.12,6.39,71.81,5c-1.4-.36-2.21,1.76-.79,2.12,4.31,1.11,7.44,5.41,8,9.7.39,3-2.41,9.56-6.26,8.26-1.38-.47-2.18,1.65-.79,2.12Z" transform="translate(-17.87 -1)"/><path class="cls-3" d="M72.13,5.88a5.67,5.67,0,0,0-.74-4.47,1.14,1.14,0,0,0-1.6-.16,1.16,1.16,0,0,0-.15,1.6,3.72,3.72,0,0,1,.24,2.8,1.13,1.13,0,0,0,1,1.24,1.14,1.14,0,0,0,1.24-1Z" transform="translate(-17.87 -1)"/><path class="cls-3" d="M69.88,5.73c-.88.8-2.78,1.48-3.91.93-1.31-.65-2.09,1.48-.79,2.12,1.81.88,4.72,0,6.14-1.29,1.08-1-.36-2.74-1.44-1.76Z" transform="translate(-17.87 -1)"/><path class="cls-3" d="M71.14,5.58a7.07,7.07,0,0,0-3-2.11,1.13,1.13,0,0,0-.78,2.13A4.74,4.74,0,0,1,69.39,7a1.13,1.13,0,0,0,1.75-1.43Z" transform="translate(-17.87 -1)"/><path class="cls-3" d="M43.84,49.67c2.88,4.82-2.54,9.28-6.62,10.87-5.3,2.07-12.67-1.43-15.12-6.34C21.45,52.91,23.36,51.67,24,53c2,4,6.86,6.13,11.17,5.77,3.07-.26,8.83-4.38,6.75-7.87-.75-1.25,1.16-2.47,1.91-1.21Z" transform="translate(-17.87 -1)"/><path class="cls-3" d="M23,54.34a5.65,5.65,0,0,1-4.52.21A1.13,1.13,0,0,1,18,53a1.14,1.14,0,0,1,1.52-.49,3.69,3.69,0,0,0,2.79-.36,1.14,1.14,0,0,1,1.43.73A1.15,1.15,0,0,1,23,54.34Z" transform="translate(-17.87 -1)"/><path class="cls-3" d="M22.39,52.17c.59-1,.85-3,.07-4-.9-1.15,1-2.36,1.91-1.22,1.25,1.58,1,4.62,0,6.27-.73,1.26-2.75.23-2-1Z" transform="translate(-17.87 -1)"/><path class="cls-3" d="M22.5,53.43a7.06,7.06,0,0,1-2.7-2.53,1.13,1.13,0,0,1,1.91-1.22,4.75,4.75,0,0,0,1.82,1.74,1.13,1.13,0,0,1-1,2Z" transform="translate(-17.87 -1)"/><path class="cls-4" d="M44.21,38.7s2.41-.36,2.22-2.59c0,0,2.7.54,2.46-2.71,0,0,3.13,1.12,2.44-2.2,0,0,3.12,1.42,2.29-2.06,0,0,1.7,1.11,2-.85S53.49,24.53,52.46,24a21.37,21.37,0,0,0-5.16-1c-.21.1-1.87,2-2.17,2s-2,2.78-2.08,3a37.31,37.31,0,0,0-1.51,3.86C41.68,32,41.68,37.32,44.21,38.7Z" transform="translate(-17.87 -1)"/><path class="cls-5" d="M72.05,18.32q-7.3-9.24-21.82-9.24a27.2,27.2,0,0,0-19.38,7.53,24.71,24.71,0,0,0-8,18.71q0,9.09,7.8,16.34a26.47,26.47,0,0,0,18.67,7.25A20.1,20.1,0,0,0,57.65,57l-.55,1.55q-1.34,3.66-6.09,8.2a18.68,18.68,0,0,1-6.59,3.76,25.47,25.47,0,0,1-8.81,1.55,21.21,21.21,0,0,0-6.42.67Q25,74.08,25,81.84c0,4.58,1,7.49,3.1,8.75,1.18.74,3.18,1.11,6,1.11h.67q20.7,0,32.67-14.18t12-35.33Q79.36,27.58,72.05,18.32ZM59,34.21a8,8,0,1,1-8-8A8,8,0,0,1,59,34.21Z" transform="translate(-17.87 -1)"/><path class="cls-6" d="M43.38,6.54s-3.23-.88-5.47.77a8.61,8.61,0,0,0-2.79,4.86c.08.38.21.83.68.46s.6-3.46,2.54-4.77A11.12,11.12,0,0,1,43.38,6.54Z" transform="translate(-17.87 -1)"/><path class="cls-7" d="M39.51,12.14c-1.54,3.09-.12,7.27,3.23,9.27s7.21,1.16,8.7-2,.11-7.28-3.17-9.33S41.05,9,39.51,12.14Z" transform="translate(-17.87 -1)"/><path class="cls-3" d="M46.43,22.82a7.28,7.28,0,0,1-3.85-1.15c-3.47-2.07-5-6.41-3.35-9.67h0a5.84,5.84,0,0,1,3.61-3,7,7,0,0,1,5.59.84c3.42,2.14,4.88,6.5,3.28,9.73a5.59,5.59,0,0,1-3.53,3A6,6,0,0,1,46.43,22.82ZM44.65,9.33A5.66,5.66,0,0,0,43,9.57a5.17,5.17,0,0,0-3.23,2.7h0c-1.48,3-.09,7,3.11,8.88A6.37,6.37,0,0,0,48,22a5,5,0,0,0,3.15-2.71c1.47-3,.11-7-3-8.94A6.71,6.71,0,0,0,44.65,9.33Z" transform="translate(-17.87 -1)"/><path class="cls-6" d="M43.39,15.37a3.15,3.15,0,1,0,4.34-1.21A3.18,3.18,0,0,0,43.39,15.37Z" transform="translate(-17.87 -1)"/><path class="cls-7" d="M31,19.65c3.27-1,7.17,1,8.67,4.54s.13,7.31-3.21,8.4-7.23-1-8.73-4.62S27.63,20.74,31,19.65Z" transform="translate(-17.87 -1)"/><path class="cls-3" d="M34.64,33.16a8.14,8.14,0,0,1-7.22-5.07,6.86,6.86,0,0,1-.11-5.54,5.86,5.86,0,0,1,3.56-3.19h0c3.44-1.09,7.5,1,9,4.71A7,7,0,0,1,40,29.72a5.73,5.73,0,0,1-3.51,3.15A6,6,0,0,1,34.64,33.16ZM31.06,19.94a5.2,5.2,0,0,0-3.19,2.86A6.23,6.23,0,0,0,28,27.85c1.42,3.4,5.24,5.43,8.35,4.45a5.15,5.15,0,0,0,3.14-2.83,6.41,6.41,0,0,0-.11-5.16C37.93,20.9,34.21,18.94,31.06,19.94Z" transform="translate(-17.87 -1)"/><path class="cls-6" d="M33.24,23.93a3.18,3.18,0,0,1,2.27,5.95,3.19,3.19,0,0,1-2.27-5.95Z" transform="translate(-17.87 -1)"/><path class="cls-7" d="M42.25,15.65a1.28,1.28,0,0,0,.52,1.75,1.29,1.29,0,1,0-.52-1.75Z" transform="translate(-17.87 -1)"/><path class="cls-7" d="M31,25.33a1.45,1.45,0,0,1,1,2.72,1.44,1.44,0,0,1-1.84-.87A1.43,1.43,0,0,1,31,25.33Z" transform="translate(-17.87 -1)"/><path class="cls-6" d="M24.77,23s-.29-3.31,1.67-5.31a8.59,8.59,0,0,1,5.19-2.1c.35.16.7.33.35.72-.56.55-3.54.14-5.11,1.93A10.45,10.45,0,0,0,24.77,23Z" transform="translate(-17.87 -1)"/><path class="cls-8" d="M61.58,16.25a16.75,16.75,0,0,1,9,10.69,1,1,0,0,0,1.83-.5A18.61,18.61,0,0,0,62.54,14.6c-1.1-.52-2.07,1.12-1,1.65Z" transform="translate(-17.87 -1)"/><path class="cls-8" d="M73,31.32a1,1,0,0,0,0-1.91,1,1,0,0,0,0,1.91Z" transform="translate(-17.87 -1)"/><path class="cls-8" d="M58.88,60.7A20.51,20.51,0,0,1,52.18,69c-1,.74,0,2.39,1,1.65a22.81,22.81,0,0,0,7.57-9.44c.46-1.13-1.38-1.62-1.83-.5Z" transform="translate(-17.87 -1)"/><path class="cls-8" d="M28.41,78.15c-.07,1.72-.15,3.44-.22,5.16a5.82,5.82,0,0,0,.7,3.8c1.54,2.17,4.39,1.73,6.61,1.13A1,1,0,0,0,35,86.4c-2.12.58-4.87,1-4.93-2.05,0-2,.16-4.14.26-6.2.05-1.23-1.85-1.22-1.91,0Z" transform="translate(-17.87 -1)"/><path class="cls-8" d="M38.66,87.92a1,1,0,0,0,0-1.9,1,1,0,0,0,0,1.9Z" transform="translate(-17.87 -1)"/></g></g></svg>