<?xml version="1.0" encoding="utf-8"?>
<!-- Generator: Adobe Illustrator 22.0.1, SVG Export Plug-In . SVG Version: 6.00 Build 0)  -->
<svg version="1.1" id="Camada_1" xmlns="http://www.w3.org/2000/svg" xmlns:xlink="http://www.w3.org/1999/xlink" x="0px" y="0px"
	 viewBox="0 0 100 100" style="enable-background:new 0 0 100 100;" xml:space="preserve">
<style type="text/css">
	.st0{opacity:0.5;fill:#BCBEC0;}
	.st1{fill:#FF9116;}
	.st2{fill:#FF1B35;}
	.st3{fill-rule:evenodd;clip-rule:evenodd;fill:#231F20;}
	.st4{fill-rule:evenodd;clip-rule:evenodd;fill:#FFFFFF;}
	.st5{fill:#EB8514;}
	.st6{fill:#FFB463;}
</style>
<g>
	<path class="st0" d="M76,92.9c0,1.4-11.5,2.6-25.7,2.6c-14.2,0-25.7-1.2-25.7-2.6c0-1.4,11.5-2.6,25.7-2.6
		C64.5,90.3,76,91.5,76,92.9z"/>
	<g>
		<path class="st1" d="M72.1,14.9c5.4,5.3,8.1,11.3,8.1,17.9c0,6.6-3,11.4-8.9,14.4V48c0.8,0.4,1.9,1.2,3.3,2.4
			c1.5,1.2,2.7,2.5,3.6,3.7C80.8,57.3,82,60.9,82,65c0,8.1-3,14.8-9.1,20c-6.1,5.3-13.7,7.9-22.8,7.9c-9.1,0-16.7-2.6-22.7-7.9
			c-2.3-2-4.3-4.7-6-8.1c-0.6-1.2-1-2.2-1.2-3l-0.2-1.1c-0.8-2.5-1.2-4.5-1.2-6.1c0-4.4,3.7-6.6,11.1-6.6c3,0,5,0.4,6,1.1
			c1.3,1,2.4,3,3.4,5.9c0.8,2.4,2.8,4.2,6.2,5.4c1.4,0.5,3,0.7,4.8,0.7c4,0,7-0.8,8.9-2.4c1.9-1.6,2.8-3.5,2.8-5.5
			c0-2-0.9-3.8-2.8-5.4c-1.9-1.6-4-2.3-6.6-2.3c-2.5,0-4.3-0.1-5.2-0.2c-0.9-0.2-1.9-0.5-3-1.1c-2-1-3.1-3.9-3.1-8.7
			c0-5.3,1.4-8.4,4.2-9.4c1.3-0.4,3.3-0.6,5.9-0.6c5.8,0,8.6-1.5,8.6-4.4c0-1.6-0.8-3.1-2.3-4.5c-1.5-1.4-3.6-2.2-6.3-2.2
			c-2.7,0-4.8,0.5-6.4,1.4c-1.6,0.9-2.6,1.8-3,2.7l-0.7,1.4c-1.7,3.8-4.2,5.7-7.5,5.7c-1.9,0-4-0.7-6.2-2c-3.8-2.2-5.7-4.7-5.7-7.6
			c0-1.2,0.9-3.8,2.6-7.7c0.3-0.7,1.1-1.9,2.5-3.6c1.4-1.7,2.9-3.2,4.7-4.5c1.8-1.3,4.3-2.5,7.5-3.5C42.6,7.5,46.2,7,50.1,7
			C59.4,7,66.7,9.6,72.1,14.9z"/>
		<path class="st2" d="M35.6,27.7c-0.1,0-0.2,0-0.2,0.1c0,0,0,0,0,0c-0.2,0-0.4,0.1-0.6,0.1C34.2,28,33.8,28,33.3,28l0,0
			c-0.2,0-0.3,0-0.5,0c0,0-0.1,0-0.1,0c-0.2,0-0.3,0-0.5-0.1c-0.4-0.1-0.9-0.2-1.4-0.3v0c-0.1,0-0.3-0.1-0.4-0.1
			c-0.1,0-0.2-0.1-0.3-0.1c0,0,0,0,0,0c-0.2,0.3-0.4,0.5-0.6,0.7c0.2-0.1,0.4-0.4,0.6-0.7c0,0,0,0,0,0c-0.5-0.2-0.9-0.4-1.3-0.6
			c-0.2-0.1-0.3-0.2-0.5-0.3c0,0,0,0,0,0c-0.1-0.1-0.3-0.2-0.4-0.3l0,0c-0.2,0.2-0.5,0.3-0.7,0.3c0.2,0,0.5-0.2,0.7-0.3l0,0
			c-0.4-0.3-0.7-0.5-1-0.8c-0.1-0.1-0.2-0.3-0.4-0.4c0,0,0,0,0,0c-0.1-0.1-0.2-0.3-0.3-0.4c0,0.1-0.1,0.3-0.1,0.4c0,0,0,0,0,0
			c0,0.1,0,0.3,0,0.4c0,0,0,0,0,0c0,0.1,0,0.3,0,0.4c0,0,0,0,0,0c0,0.1,0,0.3,0,0.4c0,0,0,0,0,0c0,0.1,0,0.3,0.1,0.4c0,0,0,0,0,0
			c0,0.1,0.1,0.3,0.1,0.4c0,0,0,0,0,0c0,0.1,0.1,0.3,0.1,0.4c0,0,0,0,0,0c0.1,0.1,0.1,0.3,0.2,0.4c0,0,0,0,0,0v0
			c0.2,0.4,0.5,0.8,0.8,1.2l0,0c0,0,0,0,0,0c0.4,0.4,0.8,0.8,1.4,1c0,0,0,0,0,0v0c0.2,0.1,0.5,0.2,0.7,0.3c0.3,0.1,0.5,0.1,0.8,0.2
			c0,0,0,0,0,0c0,0,0,0,0.1,0c0.1,0,0.3,0,0.4,0c0.5,0,0.9,0,1.4-0.1c0,0,0,0,0,0c0,0,0,0,0,0c0,0,0,0,0,0c0.5-0.1,0.9-0.3,1.4-0.5
			l0,0l0,0c0.1,0,0.1-0.1,0.2-0.1c0,0,0,0,0,0c0.1,0,0.1-0.1,0.2-0.1c0,0,0,0,0,0c0.1,0,0.1-0.1,0.2-0.1c0,0,0,0,0,0
			c0.1,0,0.1-0.1,0.2-0.1c0,0,0,0,0,0c0,0,0.1-0.1,0.1-0.1c0,0,0,0,0,0c0,0,0.1-0.1,0.1-0.1c0,0,0,0,0,0c0,0,0.1-0.1,0.1-0.1
			c0,0,0,0,0-0.1c0,0,0.1-0.1,0.1-0.1c0,0,0,0,0.1-0.1c0,0,0.1-0.1,0.1-0.1c0,0,0,0,0.1-0.1c0,0,0.1-0.1,0.1-0.1c0,0,0-0.1,0.1-0.1
			c0,0,0.1-0.1,0.1-0.1c0,0,0-0.1,0.1-0.1c0,0,0-0.1,0.1-0.1c0,0,0-0.1,0.1-0.1c0,0,0-0.1,0.1-0.1c0,0,0-0.1,0.1-0.1
			c0,0,0-0.1,0-0.1c0,0,0-0.1,0.1-0.1c0,0,0-0.1,0-0.1c0-0.1,0.1-0.2,0.1-0.2C35.7,27.7,35.7,27.7,35.6,27.7z"/>
		<g>
			<path class="st3" d="M23.6,2.9c0,0,2.6-2.3,5.5-1.8C31.9,1.5,34,4.3,34,4.3C34,4.6,34.1,5,33.5,4.9c-0.7-0.1-2.2-2.9-4.7-3.1
				C26.3,1.5,23.6,2.9,23.6,2.9z"/>
			<g>
				<path class="st4" d="M29.9,6.3c2.9,2.1,3.6,6.7,1.4,10.1c-2.1,3.5-6.2,4.5-9,2.4c-2.9-2.1-3.6-6.7-1.5-10.1S27,4.1,29.9,6.3z"/>
				<path class="st5" d="M25.6,20.1c-1.3,0-2.5-0.4-3.5-1.2c-3-2.2-3.7-6.9-1.6-10.5c1.1-1.8,2.8-3.1,4.7-3.5c1.7-0.4,3.4,0,4.8,1
					l0,0c3,2.2,3.7,6.9,1.5,10.5c-1.1,1.9-2.9,3.1-4.8,3.5C26.4,20.1,26,20.1,25.6,20.1z M26.5,5.4c-0.4,0-0.8,0-1.1,0.1
					c-1.7,0.4-3.3,1.5-4.3,3.2c-2,3.3-1.3,7.7,1.4,9.7c1.2,0.9,2.7,1.3,4.2,1c1.8-0.3,3.4-1.5,4.4-3.2c2-3.2,1.4-7.7-1.4-9.7
					C28.8,5.8,27.6,5.4,26.5,5.4z"/>
			</g>
			<path class="st3" d="M28.3,12.7c1.5,1.1,1.9,3.1,0.9,4.6c-1,1.5-3,1.9-4.5,0.9c-1.5-1-1.9-3.1-0.9-4.6
				C24.7,12.2,26.8,11.7,28.3,12.7z"/>
			<path class="st4" d="M26.3,11.4c0.6,0.4,0.8,1.3,0.4,1.9c-0.4,0.6-1.2,0.8-1.9,0.4c-0.6-0.4-0.8-1.3-0.4-1.9
				C24.9,11.1,25.7,11,26.3,11.4z"/>
			<g>
				<path class="st4" d="M42.5,10.7c-3.6-0.7-7.4,1.8-8.6,5.6c-1.2,3.9,0.7,7.6,4.3,8.3c3.5,0.8,7.4-1.7,8.5-5.6
					C47.9,15.2,46,11.5,42.5,10.7z"/>
				<path class="st5" d="M39.5,25c-0.5,0-0.9,0-1.4-0.2c-1.7-0.3-3.1-1.3-3.9-2.8c-1-1.7-1.2-3.8-0.6-5.9c1.3-4,5.3-6.6,9-5.8l0,0
					c1.7,0.4,3.1,1.4,3.9,2.9c1,1.7,1.1,3.8,0.5,5.8C45.9,22.6,42.7,25,39.5,25z M41.3,10.9c-3,0-6.1,2.3-7.1,5.5
					c-0.6,1.9-0.4,3.9,0.5,5.4c0.8,1.3,2,2.2,3.5,2.5c3.4,0.8,7.1-1.7,8.2-5.3c0.6-1.9,0.5-3.8-0.4-5.4c-0.8-1.3-2-2.3-3.5-2.6
					C42.1,10.9,41.7,10.9,41.3,10.9z"/>
			</g>
			<path class="st3" d="M38.6,16c-1.7-0.5-3.6,0.6-4,2.4c-0.4,1.8,0.6,3.6,2.4,4c1.8,0.4,3.6-0.6,4-2.4C41.4,18.3,40.4,16.5,38.6,16
				z"/>
			<path class="st3" d="M49.2,13.5c0,0,0-3.5-2.2-5.2c-2.3-1.9-5.7-1.6-5.7-1.6c-0.4,0.2-0.7,0.4-0.2,0.8c0.6,0.4,3.7-0.4,5.5,1.3
				C48.4,10.5,49.2,13.5,49.2,13.5z"/>
			<path class="st4" d="M37.6,14.9c0.6,0.4,0.8,1.3,0.4,1.9c-0.4,0.6-1.2,0.8-1.9,0.4c-0.6-0.4-0.8-1.3-0.4-1.9
				C36.2,14.6,37.1,14.5,37.6,14.9z"/>
		</g>
		<g>
			<path class="st6" d="M74.7,32.2c-0.4,3.8-1.2,9-5.8,9.7c-1.2,0.2-0.7,2,0.5,1.8c5.5-0.8,6.7-6.9,7.2-11.5
				C76.7,31,74.8,31,74.7,32.2L74.7,32.2z"/>
		</g>
		<g>
			<path class="st6" d="M69.8,52.6c2.5,1.4,4.2,3.8,4.8,6.6c0.2,1.2,2,0.7,1.8-0.5c-0.7-3.3-2.7-6.1-5.6-7.7
				C69.7,50.4,68.8,52,69.8,52.6L69.8,52.6z"/>
		</g>
		<g>
			<path class="st6" d="M77.2,64.1c1.2,0,1.2-1.9,0-1.9C76,62.3,76,64.1,77.2,64.1L77.2,64.1z"/>
		</g>
		<g>
			<path class="st6" d="M65.7,43.9c1.2,0,1.2-1.9,0-1.9C64.5,42,64.5,43.9,65.7,43.9L65.7,43.9z"/>
		</g>
		<g>
			<path class="st6" d="M23,65.5c-0.1,4.5,1.4,8.8,4.3,12.3c0.8,0.9,2.1-0.4,1.3-1.3c-2.6-3.1-3.9-7-3.8-11
				C24.9,64.3,23.1,64.3,23,65.5L23,65.5z"/>
		</g>
		<g>
			<path class="st6" d="M30.2,80.9c1.2,0,1.2-1.9,0-1.9C29,79.1,29,80.9,30.2,80.9L30.2,80.9z"/>
		</g>
		<g>
			<g>
				<path class="st1" d="M55,51.3c-0.3,5.7-7.4,6.5-11.7,5.5c-5.7-1.2-9.9-8.3-9.3-13.8c0.2-1.5,2.5-1.4,2.3,0
					c-0.5,4.5,2.4,9,6.2,11.1c2.8,1.5,10,1.2,10.1-2.9C52.7,49.8,55,49.8,55,51.3L55,51.3z"/>
			</g>
			<g>
				<path class="st1" d="M34.6,43.6c-1.6-0.3-3-1-4-2.3c-0.4-0.5-0.1-1.3,0.4-1.6c0.6-0.3,1.2-0.1,1.6,0.4c0.6,0.8,1.6,1.1,2.6,1.3
					c0.6,0.1,1,0.9,0.8,1.4C35.9,43.5,35.3,43.7,34.6,43.6L34.6,43.6z"/>
			</g>
			<g>
				<path class="st1" d="M35.3,41.4c1.1-0.5,2.4-2.1,2.3-3.4c-0.1-1.5,2.2-1.4,2.3,0c0.2,2-1.8,4.5-3.5,5.3
					C35.2,44.1,34,42.1,35.3,41.4L35.3,41.4z"/>
			</g>
			<g>
				<path class="st1" d="M34.7,42.6c-0.6-1.1-0.9-2.4-0.9-3.7c0-1.5,2.3-1.5,2.3,0c0,0.9,0.1,1.7,0.6,2.5
					C37.5,42.7,35.5,43.9,34.7,42.6L34.7,42.6z"/>
			</g>
		</g>
	</g>
</g>
</svg>
