<svg xmlns="http://www.w3.org/2000/svg" viewBox="0 0 74.81 98"><defs><style>.cls-1{isolation:isolate;}.cls-2{fill:#bcbec0;opacity:0.5;mix-blend-mode:multiply;}.cls-3{fill:#6ec930;}.cls-4{fill:#77d934;}.cls-5,.cls-9{fill:#231f20;}.cls-5,.cls-6{fill-rule:evenodd;}.cls-6,.cls-8{fill:#fff;}.cls-7{fill:#6ac22e;}.cls-10{fill:#7ee637;}</style></defs><title>Numero 4</title><g class="cls-1"><g id="Camada_1" data-name="Camada 1"><path class="cls-2" d="M86.1,95.94C86.1,97.63,71.54,99,53.58,99s-32.52-1.37-32.52-3.06,14.56-3,32.52-3S86.1,94.25,86.1,95.94Z" transform="translate(-12.17 -1)"/><path class="cls-3" d="M53.25,69.69V94a7.19,7.19,0,0,0-4,.28.45.45,0,0,0,.13.84l5.29.86a.88.88,0,0,0,1-.55l.75-24.26Z" transform="translate(-12.17 -1)"/><path class="cls-3" d="M73.17,69.7l0,24.25a7.29,7.29,0,0,1,4,.29.44.44,0,0,1-.12.84l-5.3.85a.89.89,0,0,1-1-.55l-.7-24.27Z" transform="translate(-12.17 -1)"/><path class="cls-3" d="M58.46,40.94c-3.07,5-9.88,2.19-13.37-.82-4.53-3.9-4.88-12.45-1.52-17.13.88-1.23,3-.07,2.07,1.18-2.73,3.8-2.34,9.36.12,13.18,1.75,2.72,8.41,6,10.63,2.41.8-1.31,2.87-.14,2.07,1.18Z" transform="translate(-12.17 -1)"/><path class="cls-3" d="M43.88,23.9a6,6,0,0,1-2.42-4.09,1.19,1.19,0,0,1,1.18-1.21,1.21,1.21,0,0,1,1.2,1.18,3.83,3.83,0,0,0,1.71,2.41,1.21,1.21,0,0,1,0,1.69,1.23,1.23,0,0,1-1.69,0Z" transform="translate(-12.17 -1)"/><path class="cls-3" d="M45.6,22.26c1.24,0,3.23-.69,3.77-1.9.63-1.4,2.69-.21,2.07,1.18-.86,1.93-3.8,3.18-5.81,3.1-1.53-.05-1.57-2.44,0-2.38Z" transform="translate(-12.17 -1)"/><path class="cls-3" d="M44.48,23a7.4,7.4,0,0,1,1-3.75,1.19,1.19,0,0,1,2.07,1.17A5,5,0,0,0,46.86,23a1.19,1.19,0,0,1-2.38,0Z" transform="translate(-12.17 -1)"/><path class="cls-3" d="M70.79,43.51a12.81,12.81,0,0,0,15.36-6.83c2.19-4.48-.19-12.33-4.72-14.55-1.46-.71-2.39,1.63-.94,2.33,3.46,1.7,4.69,8,3.33,11.27-1.94,4.67-7.4,6.76-12.09,5.45-1.54-.44-2.5,1.89-.94,2.33Z" transform="translate(-12.17 -1)"/><path class="cls-3" d="M79.32,21.77a2.71,2.71,0,0,1-2.5.58,1.27,1.27,0,0,0-1.64.69,1.29,1.29,0,0,0,.7,1.64c1.61.81,3.6,0,5-.92s-.21-2.9-1.54-2Z" transform="translate(-12.17 -1)"/><path class="cls-3" d="M80.53,18.56a3.43,3.43,0,0,1,.08,1.68,3.84,3.84,0,0,1-1,1.36,1.29,1.29,0,0,0-.23,1.76,1.26,1.26,0,0,0,1.77.23,7.52,7.52,0,0,0,1.83-2.4,5.33,5.33,0,0,0,.08-3c-.31-1.58-2.8-1.23-2.49.36Z" transform="translate(-12.17 -1)"/><path class="cls-3" d="M77.34,20.61a10.17,10.17,0,0,1,1.77,2.21,1.26,1.26,0,1,0,2-1.54,12.36,12.36,0,0,0-2.23-2.66,1.25,1.25,0,0,0-1.76.23,1.28,1.28,0,0,0,.23,1.76Z" transform="translate(-12.17 -1)"/><path class="cls-4" d="M54.16,8.6a5,5,0,0,1,3.15-2.23,22.05,22.05,0,0,1,5.84-.63,18.21,18.21,0,0,1,5.78.75A5.25,5.25,0,0,1,72,8.89a8.57,8.57,0,0,1,1.09,3,33.54,33.54,0,0,1,.17,4V79.61A15.2,15.2,0,0,1,72.2,86.2,5.38,5.38,0,0,1,68.87,89a19.07,19.07,0,0,1-5.55.69,19.44,19.44,0,0,1-5.27-.57,8.92,8.92,0,0,1-3-1.38,4.49,4.49,0,0,1-1.49-2.29,19.38,19.38,0,0,1-.68-6v-14H27.71A15.45,15.45,0,0,1,12.29,51.61C10.8,35.85,23.86,7.5,24.89,6.66a6.06,6.06,0,0,1,4-1.26,19.8,19.8,0,0,1,5.26.8q8,2.17,8,7.33a19.73,19.73,0,0,1-.8,4.81.86.86,0,0,0-.12.34l-7,28H52.9V15.36a30.73,30.73,0,0,1,.17-3.89A8,8,0,0,1,54.16,8.6Z" transform="translate(-12.17 -1)"/><path class="cls-5" d="M50.4,5s1.44-3.13,4.17-3.81a8.63,8.63,0,0,1,5.68,1c.28.26.46.7-.07.8-.7.19-3.14-1.88-5.51-1.12A11.4,11.4,0,0,0,50.4,5Z" transform="translate(-12.17 -1)"/><path class="cls-6" d="M57.32,5.62c3.47.81,5.76,4.66,5.23,8.56s-3.85,6.37-7.32,5.56-5.77-4.66-5.14-8.57S53.93,4.8,57.32,5.62Z" transform="translate(-12.17 -1)"/><path class="cls-7" d="M56.54,20.2A5.91,5.91,0,0,1,55.16,20c-3.62-.87-6-4.87-5.38-8.92a7.1,7.1,0,0,1,2.93-4.93,5.81,5.81,0,0,1,4.68-.87c3.57.83,6,4.83,5.46,8.91a7.29,7.29,0,0,1-3,5A5.86,5.86,0,0,1,56.54,20.2ZM56,5.77a5.29,5.29,0,0,0-3,.93,6.49,6.49,0,0,0-2.66,4.51c-.59,3.68,1.66,7.45,4.91,8.23a5.33,5.33,0,0,0,4.2-.76,6.71,6.71,0,0,0,2.74-4.55c.52-3.76-1.72-7.45-5-8.21h0A5,5,0,0,0,56,5.77Z" transform="translate(-12.17 -1)"/><path class="cls-5" d="M58.43,12.06A3.21,3.21,0,0,1,61,15.81a3.28,3.28,0,0,1-3.75,2.65,3.32,3.32,0,0,1-2.57-3.84A3.18,3.18,0,0,1,58.43,12.06Z" transform="translate(-12.17 -1)"/><path class="cls-6" d="M55.9,11.87a1.23,1.23,0,0,1,1,1.44,1.23,1.23,0,1,1-2.42-.46A1.22,1.22,0,0,1,55.9,11.87Z" transform="translate(-12.17 -1)"/><path class="cls-6" d="M68.38,5.42c-3.44.69-5.93,4.38-5.58,8.35s3.51,6.57,7,5.88,5.93-4.38,5.58-8.27S71.91,4.82,68.38,5.42Z" transform="translate(-12.17 -1)"/><path class="cls-7" d="M68.72,20.06a5.83,5.83,0,0,1-3.52-1.18,7.08,7.08,0,0,1-2.7-5.08c-.37-4.14,2.19-8,5.82-8.68h0a6,6,0,0,1,4.75,1.16,7,7,0,0,1,2.64,5.08c.37,4.11-2.25,8-5.83,8.59A5.79,5.79,0,0,1,68.72,20.06ZM68.44,5.72c-3.33.68-5.67,4.2-5.33,8a6.46,6.46,0,0,0,2.46,4.63,5.18,5.18,0,0,0,4.2,1c3.23-.56,5.67-4.2,5.34-7.93a6.44,6.44,0,0,0-2.4-4.64A5.43,5.43,0,0,0,68.44,5.72Z" transform="translate(-12.17 -1)"/><path class="cls-5" d="M67,11.74a3.19,3.19,0,0,0-2.76,3.6,3.14,3.14,0,0,0,3.6,2.75,3.19,3.19,0,0,0,2.76-3.6A3.13,3.13,0,0,0,67,11.74Z" transform="translate(-12.17 -1)"/><path class="cls-6" d="M65.46,11.87a1.23,1.23,0,0,1,1,1.44A1.23,1.23,0,1,1,64,12.85,1.22,1.22,0,0,1,65.46,11.87Z" transform="translate(-12.17 -1)"/><path class="cls-5" d="M75.55,5.45s-1.3-3.25-4-4.08-5.74.83-5.74.83c-.26.27-.51.63,0,.8.71.16,3.24-1.75,5.56-.92A11.47,11.47,0,0,1,75.55,5.45Z" transform="translate(-12.17 -1)"/><path class="cls-8" d="M61.51,30.3A7.78,7.78,0,0,1,59,29.44,7.78,7.78,0,0,0,61.51,30.3Z" transform="translate(-12.17 -1)"/><path class="cls-8" d="M56.68,25.57c.37.21,1-.3,1.51-.93h0a12.34,12.34,0,0,1-1.87-.74h0C56.31,24.65,56.39,25.41,56.68,25.57Z" transform="translate(-12.17 -1)"/><path class="cls-8" d="M68.7,25.76c.33-.18.39-1.14.35-2h0a12.71,12.71,0,0,1-2,.84C67.54,25.33,68.29,26,68.7,25.76Z" transform="translate(-12.17 -1)"/><polygon class="cls-8" points="54.47 28.38 54.47 28.38 54.47 28.38 54.47 28.38"/><path class="cls-8" d="M66.64,29.38a6.54,6.54,0,0,1-.59.3A6.54,6.54,0,0,0,66.64,29.38Z" transform="translate(-12.17 -1)"/><path class="cls-8" d="M66.05,29.68l0,0Z" transform="translate(-12.17 -1)"/><path class="cls-8" d="M64.71,30.16h0Z" transform="translate(-12.17 -1)"/><path class="cls-8" d="M62.69,28c-.46.06-.94,1.4-1.17,2.29a8.41,8.41,0,0,0,1.24.1,7.52,7.52,0,0,0,1.91-.24,5.12,5.12,0,0,1-.68.14C63.86,29.32,63.28,27.93,62.69,28Z" transform="translate(-12.17 -1)"/><path class="cls-8" d="M66,29.7a6.25,6.25,0,0,1-.6.24A6.25,6.25,0,0,0,66,29.7Z" transform="translate(-12.17 -1)"/><path class="cls-8" d="M66.74,27.15c-.34.23-.25,1.35-.1,2.23A8.11,8.11,0,0,0,68.43,28C67.85,27.38,67.1,26.88,66.74,27.15Z" transform="translate(-12.17 -1)"/><path class="cls-8" d="M65.4,29.94l-.06,0Z" transform="translate(-12.17 -1)"/><path class="cls-8" d="M65.34,30l-.63.19Z" transform="translate(-12.17 -1)"/><path class="cls-8" d="M58.91,27.1c-.35-.15-1.12.4-1.74,1A7.72,7.72,0,0,0,59,29.44C59.29,28.53,59.39,27.31,58.91,27.1Z" transform="translate(-12.17 -1)"/><path class="cls-8" d="M61,26.87c.35-.06.7-.83,1-1.6h0A14.11,14.11,0,0,1,59.8,25h0C60,25.94,60.54,26.94,61,26.87Z" transform="translate(-12.17 -1)"/><path class="cls-8" d="M64.42,26.77c.37-.05.75-.94,1-1.75a16.47,16.47,0,0,1-2.14.25C63.53,26.07,64,26.84,64.42,26.77Z" transform="translate(-12.17 -1)"/><path class="cls-9" d="M68.43,28h0l.23-.25,0,0,.21-.25,0,0c.06-.09.13-.17.19-.25l0,0,.17-.25,0-.05c.06-.08.11-.16.16-.24l0-.07.14-.24s0,0,0-.08l.12-.23,0-.1c0-.08.07-.15.1-.23a1.17,1.17,0,0,1,0-.11l.09-.22c0-.05,0-.09,0-.13a2,2,0,0,0,.08-.22.57.57,0,0,0,0-.14,1.72,1.72,0,0,0,.07-.21.94.94,0,0,1,0-.16,1.46,1.46,0,0,1,0-.2l0-.18a1.16,1.16,0,0,0,0-.18l0-.21,0-.17,0-.24s0-.09,0-.13,0-.26,0-.39l-.37.27-.33.22-.06,0c-.26.16-.53.31-.81.46h0c0,.85,0,1.81-.35,2s-1.16-.43-1.67-1.15h0c-.23.08-.47.14-.71.2l-.16,0-.74.17c-.25.81-.63,1.7-1,1.75s-.89-.7-1.14-1.5H62c-.25.77-.6,1.54-1,1.6S60,25.94,59.8,25h0c-.27-.05-.54-.1-.8-.17h0l-.79-.22h0c-.5.63-1.14,1.14-1.51.93s-.37-.92-.36-1.67h0c-.25-.12-.49-.25-.72-.38l0,0a7.39,7.39,0,0,1-.66-.42c0,.23,0,.46.08.69v0c0,.22.08.43.13.64a.64.64,0,0,0,0,.07c.05.2.11.41.18.61l0,.06c.07.2.15.4.23.59l0,.06c.09.19.19.38.29.56l0,.05c.11.19.22.37.34.54l0,0a6.41,6.41,0,0,0,.39.52l0,0c.14.17.29.33.45.49h0c.62-.56,1.39-1.11,1.74-1s.38,1.43.09,2.34h0a7.78,7.78,0,0,0,2.51.86h0c.23-.89.71-2.23,1.17-2.29s1.17,1.31,1.3,2.29a8,8,0,0,0,2.65-.92c-.15-.88-.24-2,.1-2.23s1.11.23,1.69.84Z" transform="translate(-12.17 -1)"/><path class="cls-10" d="M16.65,44.71a12.29,12.29,0,0,0,1,9.88,12.09,12.09,0,0,0,9.85,6c1.23.12,1.23-1.81,0-1.92a10.1,10.1,0,0,1-8.34-5.31,10.32,10.32,0,0,1-.6-8.11c.41-1.17-1.45-1.67-1.86-.51Z" transform="translate(-12.17 -1)"/><path class="cls-10" d="M26,15.38c.52-1.58.82-3.83,2.62-4.39a8.13,8.13,0,0,1,4.65.4c1.17.41,1.68-1.45.51-1.86-1.88-.66-4.43-1-6.31-.16-2.19,1-2.65,3.43-3.32,5.49-.39,1.18,1.47,1.69,1.85.52Z" transform="translate(-12.17 -1)"/><path class="cls-10" d="M36.26,12.4a1,1,0,0,0,0-1.92,1,1,0,0,0,0,1.92Z" transform="translate(-12.17 -1)"/><path class="cls-10" d="M70.19,83.36c-.09-5.76.09-11.51,0-17.27a1,1,0,0,0-1.93,0c.09,5.76-.09,11.51,0,17.27a1,1,0,0,0,1.93,0Z" transform="translate(-12.17 -1)"/><path class="cls-10" d="M69.23,62.93a1,1,0,0,0,0-1.93,1,1,0,0,0,0,1.93Z" transform="translate(-12.17 -1)"/></g></g></svg>