<svg xmlns="http://www.w3.org/2000/svg" viewBox="0 0 70.55 98.15"><defs><style>.cls-1{isolation:isolate;}.cls-2{fill:#bcbec0;opacity:0.5;mix-blend-mode:multiply;}.cls-3,.cls-7{fill:#231f20;}.cls-3,.cls-4{fill-rule:evenodd;}.cls-4{fill:#fff;}.cls-5{fill:#05a098;}.cls-6{fill:#01c6ba;}.cls-8{fill:#01d9cc;}</style></defs><title>Numero 1</title><g class="cls-1"><g id="Camada_1" data-name="Camada 1"><path class="cls-2" d="M85,96c0,1.66-13.3,3-29.7,3s-29.69-1.35-29.69-3S38.9,93,55.3,93,85,94.34,85,96Z" transform="translate(-14.45 -0.85)"/><path class="cls-3" d="M23,8.77S24.87,6,27.52,5.85s5.09,1.89,5.09,1.89c.19.28.38.66-.19.66s-2.64-2.17-4.9-1.89A11.49,11.49,0,0,0,23,8.77Z" transform="translate(-14.45 -0.85)"/><path class="cls-4" d="M29.4,10.38c3,1.32,4.63,5.28,3.5,8.87s-4.53,5.28-7.65,4S20.63,18,21.76,14.44,26.29,9.15,29.4,10.38Z" transform="translate(-14.45 -0.85)"/><path class="cls-5" d="M27.36,24a5.64,5.64,0,0,1-2.23-.46c-3.2-1.3-4.84-5.4-3.66-9.15A6.82,6.82,0,0,1,25,10.25a5.68,5.68,0,0,1,4.57-.15h0c3.18,1.39,4.82,5.54,3.65,9.24a6.7,6.7,0,0,1-3.5,4.1A5.58,5.58,0,0,1,27.36,24Zm0-13.65a5.18,5.18,0,0,0-2.2.49,6.1,6.1,0,0,0-3.15,3.74c-1.07,3.39.45,7.24,3.32,8.4a5,5,0,0,0,4.06,0,6.1,6.1,0,0,0,3.18-3.73c1.07-3.41-.41-7.23-3.32-8.5A5.2,5.2,0,0,0,27.4,10.3Z" transform="translate(-14.45 -0.85)"/><path class="cls-3" d="M30.44,16.42a3,3,0,0,1,1.8,3.87,2.94,2.94,0,0,1-3.87,1.79,2.9,2.9,0,0,1-1.8-3.87A3,3,0,0,1,30.44,16.42Z" transform="translate(-14.45 -0.85)"/><path class="cls-5" d="M44.78,67.53c0,7.72-2.84,25.69-2.84,25.69a7.69,7.69,0,0,0-4.31-.82.48.48,0,0,0-.1.91l5.31,2.36A1,1,0,0,0,44,95.36l7.45-25.25S44.78,66.61,44.78,67.53Z" transform="translate(-14.45 -0.85)"/><path class="cls-5" d="M67.08,67.53l0,26.31a7.85,7.85,0,0,1,4.38.3.49.49,0,0,1-.14.92L65.54,96a1,1,0,0,1-1.05-.6l-.76-26.31Z" transform="translate(-14.45 -0.85)"/><path class="cls-5" d="M51.71,54c-4.59,10.81-19.78,3-25.75-3.51-.72-.78.51-1.89,1.23-1.1,5,5.44,18.85,11.38,22.88,1.9.41-1,2-.47,1.57.51Z" transform="translate(-14.45 -0.85)"/><path class="cls-5" d="M29.77,42.45a5,5,0,0,1,1.11,4.67c-.56,2-2.69,2.77-4.52,3.05-1.05.16-1.39-1.46-.34-1.62,1.34-.21,2.73-.54,3.29-1.94a3.16,3.16,0,0,0-.77-3.06c-.68-.81.54-1.92,1.23-1.1Z" transform="translate(-14.45 -0.85)"/><path class="cls-5" d="M26.32,41.54c-1.31-.92-3.67.75-3.86,2.17a4,4,0,0,0,1.22,2.92,10,10,0,0,0,2.79,1.85c.91.55,0,1.94-.89,1.39a20.16,20.16,0,0,1-2.17-1.23,8.11,8.11,0,0,1-1.63-1.78A4.59,4.59,0,0,1,21,42.73c.82-2.17,4.08-4.06,6.19-2.59.87.61,0,2-.89,1.4Z" transform="translate(-14.45 -0.85)"/><path class="cls-5" d="M25.64,49.87C24,49,22.31,48.08,20.58,47.31A49.35,49.35,0,0,0,15,45.7a.83.83,0,0,1,.51-1.57c1.86.57,3.75.86,5.57,1.61s3.64,1.82,5.45,2.74c.95.48,0,1.87-.89,1.39Z" transform="translate(-14.45 -0.85)"/><path class="cls-5" d="M26.15,50.24c-2.55.44-5.31.27-7.59,1.67-.9.56-1.63-.92-.73-1.48,2.41-1.49,5.28-1.34,8-1.8,1.05-.18,1.39,1.43.34,1.61Z" transform="translate(-14.45 -0.85)"/><path class="cls-5" d="M26.7,50.18c-.82.73-1.65,1.43-2.48,2.16-.66.58-1.6,1.21-1.77,2.13S20.68,55,20.87,54a4.23,4.23,0,0,1,1.55-2.22c1-1,2.13-1.85,3.18-2.79a.83.83,0,0,1,1.1,1.23Z" transform="translate(-14.45 -0.85)"/><path class="cls-6" d="M60,1.68a10,10,0,0,1,7.14,9.47V75.51a35.83,35.83,0,0,1-.19,4.35,9.78,9.78,0,0,1-1.2,3.34Q64,86.6,55.88,86.61q-7.82,0-9.71-3.28A9.78,9.78,0,0,1,45,79.86a40.79,40.79,0,0,1-.19-4.61v-39l-1.64,1.51c-8.37,5.35-12.87,3.12-15.52.18s-4.88-10.74-.38-14.74c0,0,15.39-15,20.69-19.88C51.36.14,56.13.54,60,1.68Z" transform="translate(-14.45 -0.85)"/><path class="cls-4" d="M43.17,10.47c-3.12,1.32-4.63,5.29-3.49,8.87s4.52,5.29,7.64,4,4.62-5.19,3.49-8.78S46.28,9.15,43.17,10.47Z" transform="translate(-14.45 -0.85)"/><path class="cls-5" d="M45.21,24a5.58,5.58,0,0,1-2.32-.51,6.7,6.7,0,0,1-3.5-4.09c-1.2-3.81.4-7.87,3.66-9.25h0a5.51,5.51,0,0,1,4.48.07,6.84,6.84,0,0,1,3.57,4.18c1.17,3.72-.43,7.73-3.66,9.14A5.64,5.64,0,0,1,45.21,24ZM43.29,10.75C40.37,12,38.88,15.8,40,19.25A6.14,6.14,0,0,0,43.14,23,5,5,0,0,0,47.2,23c2.89-1.27,4.39-5,3.32-8.41a6.22,6.22,0,0,0-3.25-3.81,4.85,4.85,0,0,0-4-.06Z" transform="translate(-14.45 -0.85)"/><path class="cls-3" d="M41.87,16a3,3,0,0,0-1.8,3.87,3.09,3.09,0,0,0,4,1.79,3,3,0,0,0,1.69-3.87A2.89,2.89,0,0,0,41.87,16Z" transform="translate(-14.45 -0.85)"/><path class="cls-4" d="M40.63,15.84A1,1,0,0,0,40,17.19a1.08,1.08,0,0,0,1.38.63,1,1,0,0,0,.6-1.36A1,1,0,0,0,40.63,15.84Z" transform="translate(-14.45 -0.85)"/><path class="cls-3" d="M49.68,9.06s-1.79-2.74-4.44-2.93A8.35,8.35,0,0,0,40.05,8c-.09.28-.28.66.29.75s2.64-2.26,4.9-2A10.79,10.79,0,0,1,49.68,9.06Z" transform="translate(-14.45 -0.85)"/><path class="cls-4" d="M27.2,15.84a1,1,0,0,0-.63,1.35,1.08,1.08,0,0,0,1.38.63,1,1,0,0,0,.6-1.36A1,1,0,0,0,27.2,15.84Z" transform="translate(-14.45 -0.85)"/><path class="cls-7" d="M28,33s4.31,3.85,8.07.3C36.05,33.34,32.15,39.2,28,33Z" transform="translate(-14.45 -0.85)"/><path class="cls-5" d="M62.54,40.29A13.67,13.67,0,0,0,78.92,33c2.33-4.77-.2-13.14-5-15.5-1.56-.76-2.55,1.73-1,2.49,3.7,1.8,5,8.53,3.56,12-2.08,5-7.9,7.21-12.89,5.8-1.65-.46-2.67,2-1,2.49Z" transform="translate(-14.45 -0.85)"/><path class="cls-5" d="M71.64,17.12c-.72.49-1.83,1-2.67.61a1.34,1.34,0,0,0-1.74.74A1.37,1.37,0,0,0,68,20.22c1.72.86,3.84,0,5.31-1s-.23-3.1-1.64-2.12Z" transform="translate(-14.45 -0.85)"/><path class="cls-5" d="M72.92,13.7A3.63,3.63,0,0,1,73,15.49a4,4,0,0,1-1.11,1.44,1.37,1.37,0,0,0-.24,1.88,1.34,1.34,0,0,0,1.88.25,8.18,8.18,0,0,0,2-2.57,5.64,5.64,0,0,0,.08-3.18c-.33-1.69-3-1.32-2.66.39Z" transform="translate(-14.45 -0.85)"/><path class="cls-5" d="M69.53,15.88a10.91,10.91,0,0,1,1.88,2.35,1.34,1.34,0,0,0,1.88.24,1.36,1.36,0,0,0,.25-1.88,14.08,14.08,0,0,0-2.38-2.84,1.34,1.34,0,1,0-1.63,2.13Z" transform="translate(-14.45 -0.85)"/><path class="cls-8" d="M63,77.1a1,1,0,0,0,0-1.89.95.95,0,0,0,0,1.89Z" transform="translate(-14.45 -0.85)"/><path class="cls-8" d="M61.62,79.21c-1.36,4.16-6.73,3.21-9.94,2.49-1.19-.26-1.7,1.56-.51,1.83,4.38,1,10.53,1.51,12.28-3.82.38-1.16-1.45-1.65-1.83-.5Z" transform="translate(-14.45 -0.85)"/><path class="cls-8" d="M56.78,5.82c4.1.09,5.25,3.22,5.1,6.86-.05,1.22,1.84,1.21,1.89,0a9.85,9.85,0,0,0-1.4-6.22,6.7,6.7,0,0,0-5.59-2.54,1,1,0,0,0,0,1.9Z" transform="translate(-14.45 -0.85)"/><path class="cls-8" d="M63,16.84A1,1,0,0,0,63,15a.95.95,0,0,0,0,1.89Z" transform="translate(-14.45 -0.85)"/></g></g></svg>