<svg width="100" height="100" xmlns="http://www.w3.org/2000/svg" viewBox="0 0 79.1 97">
    <defs>
        <style>
            .cls-4 {
                fill: #fcc105;
            }
            .cls-6,
            .cls-7 {
                fill: #fff;
            }
            .cls-8 {
               fill: #fcd305;
            }
        </style>
    </defs>
    <title>Numero 6</title>
    <g class="cls-1">
        <g id="Camada_1" data-name="Camada 1">
            <path class="cls-4"
                d="M77.14,60.8a26.15,26.15,0,0,1-8.51,19.86c-5.68,5.33-10.8,8-18.86,8-10.19,0-17.28-3.86-22.45-10.4S19,63.86,19,53.52Q19,31.08,31.73,16T66.57,1c3,0,5.15.37,6.52,1.12a5.59,5.59,0,0,1,2.76,3.34,19.08,19.08,0,0,1,.7,5.64A20,20,0,0,1,76,16.51a9.56,9.56,0,0,1-1.41,3,4.57,4.57,0,0,1-2.35,1.53,22.91,22.91,0,0,1-6.82.71,27.06,27.06,0,0,0-9.34,1.64,21.34,21.34,0,0,0-7.11,4c-3.44,3.21-.62,8.1,2.28,8.1,7.75,0,12.63,2.57,18.16,7.7A23.07,23.07,0,0,1,77.14,60.8Z"
                transform="translate(-9.36 -1)" />
            <ellipse class="cls-7" cx="41.64" cy="63.56" rx="8.79" ry="10.3" />
            <path class="cls-8" d="M72.52,17.22a1,1,0,0,0,0-1.89.95.95,0,0,0,0,1.89Z" transform="translate(-9.36 -1)" />
            <path class="cls-8"
                d="M73.52,13.15c.22-3,.3-7.28-2.64-9.06-2-1.2-4.88-.88-7.06-.5-1.19.21-.69,2,.5,1.82,1.61-.29,3.83-.55,5.35.17,2.5,1.18,2.14,5.32,2,7.57-.09,1.21,1.8,1.2,1.88,0Z"
                transform="translate(-9.36 -1)" />
            <path class="cls-8"
                d="M28.13,26.18A27.06,27.06,0,0,0,24,37.46c-.16,1.2,1.73,1.19,1.88,0a24.92,24.92,0,0,1,3.84-10.32c.66-1-1-2-1.62-1Z"
                transform="translate(-9.36 -1)" />
            <path class="cls-8" d="M30.64,25.41a.94.94,0,0,0,0-1.88.94.94,0,0,0,0,1.88Z"
                transform="translate(-9.36 -1)" />
            <path class="cls-8"
                d="M30.83,78.64a11.46,11.46,0,0,0,3.71,3.78c1,.65,2-1,1-1.63a9.35,9.35,0,0,1-3-3.1.94.94,0,0,0-1.63,1Z"
                transform="translate(-9.36 -1)" />
            <path class="cls-8" d="M73.33,66.35a.94.94,0,0,0,0-1.88.94.94,0,0,0,0,1.88Z"
                transform="translate(-9.36 -1)" />
            <path class="cls-8"
                d="M72,68a11.9,11.9,0,0,1-4.7,7.24c-1,.7,0,2.34,1,1.63a13.88,13.88,0,0,0,5.56-8.37c.26-1.18-1.55-1.68-1.81-.5Z"
                transform="translate(-9.36 -1)" />
        </g>
    </g>
</svg>