<svg width="100" height="100" xmlns="http://www.w3.org/2000/svg" viewBox="0 0 81.67 92.39">
    <defs>
        <style>
            .cls-4 {
                fill: #fcc105;
            }

            .cls-7 {
                fill: #fcd305;
            }
        </style>
    </defs>
    <title>Numero 0</title>
    <g class="cls-1">
        <g id="Camada_1" data-name="Camada 1">
            <path class="cls-4"
                d="M26.83,15.93a25.25,25.25,0,0,1,9.23-7A31.61,31.61,0,0,1,49.82,6.07,31.4,31.4,0,0,1,63.48,8.86a25.93,25.93,0,0,1,9.17,6.91A33.78,33.78,0,0,1,78,25.47a56.89,56.89,0,0,1,3.4,19.72q0,18.69-8.84,29.62a24.4,24.4,0,0,1-9.11,6.82,32.14,32.14,0,0,1-13.54,2.68,32.36,32.36,0,0,1-13.65-2.73A25.76,25.76,0,0,1,27,74.81a33.88,33.88,0,0,1-5.5-9.6,57.65,57.65,0,0,1-3.28-20.12,51.72,51.72,0,0,1,2.66-17.65A41.29,41.29,0,0,1,26.83,15.93Zm22.9,45.73Q59,61.66,59,45.59V45.1q0-16.49-9.18-16.48T40.65,45.14Q40.65,61.66,49.73,61.66Z"
                transform="translate(-9.03 -4)" />
            <path class="cls-7"
                d="M75.13,56.79A23.74,23.74,0,0,1,63,74.41c-1,.58-.11,2.2,1,1.62A25.73,25.73,0,0,0,77,56.79c.16-1.19-1.71-1.18-1.87,0Z"
                transform="translate(-9.03 -4)" />
            <path class="cls-7" d="M59.54,77.57a.94.94,0,0,0,0-1.87.94.94,0,0,0,0,1.87Z"
                transform="translate(-9.03 -4)" />
            <path class="cls-7"
                d="M23.9,46.65c0-7.81.24-16.76,5.25-23.21.72-.94-.59-2.28-1.33-1.33C22.47,29,22,38.25,22,46.65a.94.94,0,0,0,1.87,0Z"
                transform="translate(-9.03 -4)" />
            <path class="cls-7" d="M31.51,20.86a.94.94,0,0,0,0-1.87.94.94,0,0,0,0,1.87Z"
                transform="translate(-9.03 -4)" />
        </g>
    </g>
</svg>