<?xml width="100" height="100" version="1.0" encoding="utf-8"?>
<!-- Generator: Adobe Illustrator 22.0.1, SVG Export Plug-In . SVG Version: 6.00 Build 0)  -->
<svg version="1.1" id="Camada_1" xmlns="http://www.w3.org/2000/svg" xmlns:xlink="http://www.w3.org/1999/xlink" x="0px"
	y="0px" viewBox="0 0 100 100" style="enable-background:new 0 0 100 100;" xml:space="preserve">
	<style type="text/css">
		.st2 {
			fill: #fcc105;
		}
		.st6 {
			fill: #fcd305;
		}
	</style>
	<g>
		<g>
			<g>
				<g>
					<g>
				</g>
				<path class="st2" d="M73.6,73.4c3.5,0,6,0.4,7.5,1.2c1.5,0.8,2.5,2,3,3.7c0.5,1.7,0.8,3.8,0.8,6.5c0,2.7-0.3,4.8-0.8,6.4
				c-0.6,1.6-1.5,2.7-2.7,3.3c-1.9,1-4.5,1.5-7.9,1.5H23.5c-3.1,0-5.7-1.1-7.9-3.4c-2.2-2.3-3.3-5-3.3-8c0-4.6,1.6-8.8,4.8-12.7
				c3.2-3.9,7-7.2,11.5-9.9c4.5-2.8,9-5.5,13.5-8.2c4.5-2.7,8.3-5.7,11.5-9.1c3.2-3.4,4.8-7,4.8-10.8c0-0.8-0.3-1.8-0.9-3.2
				c-0.6-1.4-1.3-2.5-2-3.4c-0.7-0.9-1.8-1.7-3.4-2.5c-1.5-0.8-3.7-1.1-6.4-1.1c-2.7,0-5.1,1-7.1,3c-2,2-3.1,4-3.4,5.9l-0.5,2.9v0.8
				c0,1.9-0.1,3.3-0.2,4.2c-0.1,0.9-0.5,2-1.2,3.2c-1.3,2-4.6,3.1-9.9,3.1c-5.9,0-9.5-1.6-10.6-4.8c-0.4-1.4-0.6-3.5-0.6-6.5
				c0-8.8,3.2-16.8,9.5-23.8C28.1,4.5,36.4,1,46.6,1c10.2,0,18.5,3.5,24.9,10.6c6.4,7.1,9.6,15.2,9.6,24.3c0,4.8-1.1,9.4-3.2,13.8
				c-2.1,4.3-4.7,7.8-7.6,10.4c-6.3,5.6-11.9,9.4-16.8,11.3l-3.2,1.3v0.6H73.6z" />
				<g>
			<g>
				<g>
					<g>
						<path class="st6" d="M56.3,7.5c-6.2-3.3-12.9-2.8-19.4-0.7c-1.3,0.4-0.7,2.4,0.5,2c6-1.9,12.1-2.5,17.9,0.5
						C56.4,9.9,57.5,8.1,56.3,7.5L56.3,7.5z" />
					</g>
					<g>
						<path class="st6" d="M32.4,11.2c1.3,0,1.3-2,0-2C31.1,9.2,31.1,11.2,32.4,11.2L32.4,11.2z" />
					</g>
				</g>
				<g>
					<path class="st6" d="M22.7,71.9c-4.2,4.1-9.3,14.4-2.9,18.9c1.1,0.8,2.1-1,1-1.8c-2.5-1.7-2-5.4-1.3-7.9c0.8-3,2.5-5.6,4.7-7.8
					C25.1,72.5,23.7,71,22.7,71.9L22.7,71.9z" />
				</g>
				<g>
					<path class="st6" d="M24.5,93.5c1.3,0,1.3-2,0-2C23.2,91.4,23.2,93.5,24.5,93.5L24.5,93.5z" />
				</g>
			</g>
		</g>
	</g>
</svg>