<svg width="100" height="100" xmlns="http://www.w3.org/2000/svg" viewBox="0 0 74.81 98">
    <defs>
        <style>          
            .cls-4 {
             fill: #fcc105;
            }
            .cls-9 {
             fill: #fcd305;
            }
        </style>
    </defs>
    <title>Numero 4</title>
    <g class="cls-1">
        <g id="Camada_1" data-name="Camada 1">
            <path class="cls-4"
                d="M54.16,8.6a5,5,0,0,1,3.15-2.23,22.05,22.05,0,0,1,5.84-.63,18.21,18.21,0,0,1,5.78.75A5.25,5.25,0,0,1,72,8.89a8.57,8.57,0,0,1,1.09,3,33.54,33.54,0,0,1,.17,4V79.61A15.2,15.2,0,0,1,72.2,86.2,5.38,5.38,0,0,1,68.87,89a19.07,19.07,0,0,1-5.55.69,19.44,19.44,0,0,1-5.27-.57,8.92,8.92,0,0,1-3-1.38,4.49,4.49,0,0,1-1.49-2.29,19.38,19.38,0,0,1-.68-6v-14H27.71A15.45,15.45,0,0,1,12.29,51.61C10.8,35.85,23.86,7.5,24.89,6.66a6.06,6.06,0,0,1,4-1.26,19.8,19.8,0,0,1,5.26.8q8,2.17,8,7.33a19.73,19.73,0,0,1-.8,4.81.86.86,0,0,0-.12.34l-7,28H52.9V15.36a30.73,30.73,0,0,1,.17-3.89A8,8,0,0,1,54.16,8.6Z"
                transform="translate(-12.17 -1)" />
            <path class="cls-9"
                d="M16.65,44.71a12.29,12.29,0,0,0,1,9.88,12.09,12.09,0,0,0,9.85,6c1.23.12,1.23-1.81,0-1.92a10.1,10.1,0,0,1-8.34-5.31,10.32,10.32,0,0,1-.6-8.11c.41-1.17-1.45-1.67-1.86-.51Z"
                transform="translate(-12.17 -1)" />
            <path class="cls-9"
                d="M26,15.38c.52-1.58.82-3.83,2.62-4.39a8.13,8.13,0,0,1,4.65.4c1.17.41,1.68-1.45.51-1.86-1.88-.66-4.43-1-6.31-.16-2.19,1-2.65,3.43-3.32,5.49-.39,1.18,1.47,1.69,1.85.52Z"
                transform="translate(-12.17 -1)" />
            <path class="cls-9" d="M36.26,12.4a1,1,0,0,0,0-1.92,1,1,0,0,0,0,1.92Z" transform="translate(-12.17 -1)" />
            <path class="cls-9"
                d="M70.19,83.36c-.09-5.76.09-11.51,0-17.27a1,1,0,0,0-1.93,0c.09,5.76-.09,11.51,0,17.27a1,1,0,0,0,1.93,0Z"
                transform="translate(-12.17 -1)" />
            <path class="cls-9" d="M69.23,62.93a1,1,0,0,0,0-1.93,1,1,0,0,0,0,1.93Z" transform="translate(-12.17 -1)" />
        </g>
    </g>
</svg>