<svg xmlns="http://www.w3.org/2000/svg" viewBox="0 0 81.32 97.39"><defs><style>.cls-1{isolation:isolate;}.cls-2{fill:#bcbec0;opacity:0.5;mix-blend-mode:multiply;}.cls-3{fill:#05a098;}.cls-4{fill:#01c6ba;}.cls-5{fill:#231f20;}.cls-5,.cls-6{fill-rule:evenodd;}.cls-6{fill:#fff;}.cls-7{fill:#ff1b35;}.cls-8{fill:#01d9cc;}</style></defs><title>Numero 7</title><g class="cls-1"><g id="Camada_1" data-name="Camada 1"><path class="cls-2" d="M63.56,95.16c0,1.78-11.46,3.23-25.59,3.23s-25.6-1.45-25.6-3.23S23.83,91.92,38,91.92,63.56,93.37,63.56,95.16Z" transform="translate(-12.37 -1)"/><path class="cls-3" d="M48.74,38.53c-5.7-1.19-16.93-.3-17.44,7.36-.08,1.13-1.85,1.14-1.77,0,.61-9,12.72-10.53,19.68-9.07,1.12.24.65,1.94-.47,1.71Z" transform="translate(-12.37 -1)"/><path class="cls-3" d="M30.29,46.89a15,15,0,0,0-2.68.08c-1,.17-1.16.72-1.07,1.65.1,1.14-1.67,1.13-1.77,0a2.87,2.87,0,0,1,1.71-3.16,10.18,10.18,0,0,1,3.81-.34.89.89,0,0,1,0,1.77Z" transform="translate(-12.37 -1)"/><path class="cls-3" d="M30.74,45.24c1.83,1,4.2,2.06,4,4.57C34.66,51,32.89,51,33,49.81c.12-1.7-1.92-2.34-3.13-3a.89.89,0,0,1,.89-1.53Z" transform="translate(-12.37 -1)"/><path class="cls-3" d="M30.94,47.29a5.08,5.08,0,0,0-.6,2.64c.1,1.14-1.67,1.13-1.77,0a6.86,6.86,0,0,1,.84-3.54c.5-1,2-.13,1.53.9Z" transform="translate(-12.37 -1)"/><path class="cls-4" d="M79.17,9.74Q77.67,5,68.88,5H23.7a14.67,14.67,0,0,0-7.28,1.51A5.23,5.23,0,0,0,14,9.74,20.69,20.69,0,0,0,13.09,16v1.12A9.84,9.84,0,0,0,22.85,27l30.09.21a10.23,10.23,0,0,1-2.14,5.71c-1.84,2.72-3.76,6-6.35,9.79s-5.49,8-8.09,12.49A80.73,80.73,0,0,0,29.1,70.54,54.73,54.73,0,0,0,26.34,87.3a34.53,34.53,0,0,0,.18,4.2,7.09,7.09,0,0,0,1.2,2.83,5.08,5.08,0,0,0,3.32,2,31.8,31.8,0,0,0,6.34.5,31.8,31.8,0,0,0,6.34-.5,5.19,5.19,0,0,0,3.32-2,7.32,7.32,0,0,0,1.26-2.76,23.69,23.69,0,0,0,.25-4.08q0-10.92,11-28.87,4.65-7.4,9.23-14.68a111.12,111.12,0,0,0,7.84-14.75c2.18-5,3.27-9.14,3.27-12.48A22.52,22.52,0,0,0,79.17,9.74Z" transform="translate(-12.37 -1)"/><path class="cls-5" d="M81,4.39S78.83,1.2,75.75,1s-6,2.12-6,2.12c-.19.39-.29.78.29.87.77,0,3.09-2.6,5.7-2.22A12.56,12.56,0,0,1,81,4.39Z" transform="translate(-12.37 -1)"/><path class="cls-6" d="M72.55,6.32c-3.48,1.44-5.31,6.08-4,10.13s5.3,6.17,8.87,4.63S82.68,15,81.42,11,76.12,4.77,72.55,6.32Z" transform="translate(-12.37 -1)"/><path class="cls-3" d="M74.92,21.92a6.44,6.44,0,0,1-2.64-.57,7.8,7.8,0,0,1-4.09-4.8c-1.31-4.21.63-9,4.23-10.53a6.35,6.35,0,0,1,5.16,0,7.94,7.94,0,0,1,4.15,4.8c1.34,4.32-.56,9-4.24,10.53A6.44,6.44,0,0,1,74.92,21.92ZM75,6.14a5.64,5.64,0,0,0-2.27.48h0c-3.3,1.37-5.07,5.83-3.86,9.73a7.14,7.14,0,0,0,3.74,4.4,5.72,5.72,0,0,0,4.69,0c3.38-1.37,5.11-5.73,3.87-9.73a7.22,7.22,0,0,0-3.8-4.4A5.77,5.77,0,0,0,75,6.14Z" transform="translate(-12.37 -1)"/><path class="cls-5" d="M72.42,10.72a3.41,3.41,0,0,0-2,4.43,3.36,3.36,0,0,0,4.34,2.08,3.46,3.46,0,0,0-2.36-6.51Z" transform="translate(-12.37 -1)"/><path class="cls-6" d="M71.4,10.6a1.47,1.47,0,0,0-.85,1.9,1.45,1.45,0,0,0,1.86.89,1.48,1.48,0,0,0-1-2.79Z" transform="translate(-12.37 -1)"/><path class="cls-6" d="M61.84,6.32c3.57,1.44,5.3,6.08,4,10.13S60.58,22.62,57,21.08,51.71,15,53,11,58.27,4.77,61.84,6.32Z" transform="translate(-12.37 -1)"/><path class="cls-3" d="M59.47,21.92a6.57,6.57,0,0,1-2.59-.54c-3.59-1.5-5.53-6.32-4.23-10.53a8,8,0,0,1,4.16-4.8A6.33,6.33,0,0,1,62,6c3.68,1.49,5.58,6.21,4.24,10.52a7.84,7.84,0,0,1-4.1,4.81A6.39,6.39,0,0,1,59.47,21.92Zm0-15.78a5.72,5.72,0,0,0-2.35.51,7.24,7.24,0,0,0-3.81,4.4c-1.2,3.89.57,8.35,3.87,9.73a5.75,5.75,0,0,0,4.7,0,7.17,7.17,0,0,0,3.74-4.4c1.24-4-.5-8.36-3.86-9.73h0A5.73,5.73,0,0,0,59.43,6.14Z" transform="translate(-12.37 -1)"/><path class="cls-5" d="M61.66,11.09a3.46,3.46,0,0,1,2.07,4.43,3.41,3.41,0,0,1-4.43,2,3.28,3.28,0,0,1-2-4.34A3.4,3.4,0,0,1,61.66,11.09Z" transform="translate(-12.37 -1)"/><path class="cls-5" d="M54.22,4.68s2.12-3.19,5.21-3.38,6,2.12,6,2.12c.19.29.29.78-.29.87-.77,0-3.09-2.6-5.69-2.22A12.55,12.55,0,0,0,54.22,4.68Z" transform="translate(-12.37 -1)"/><path class="cls-6" d="M57.71,10.6a1.46,1.46,0,0,0-.85,1.9,1.44,1.44,0,0,0,1.86.89,1.48,1.48,0,1,0-1-2.79Z" transform="translate(-12.37 -1)"/><path class="cls-7" d="M70.77,24l-.19.1,0,0c-.15.08-.31.16-.48.23a8.73,8.73,0,0,1-1.22.41h0l-.42.1-.1,0-.44.08c-.41.06-.84.1-1.28.12h-.77a2,2,0,0,1-.36.64,2,2,0,0,0,.36-.64h0a11,11,0,0,1-1.31-.11c-.16,0-.32-.05-.48-.09h0l-.47-.1h0a2.21,2.21,0,0,1-.54.41,2.21,2.21,0,0,0,.54-.41h0a7.35,7.35,0,0,1-1.12-.37c-.15-.05-.29-.12-.43-.18h0L61.6,24c0,.11,0,.22,0,.33v0a2.81,2.81,0,0,0,.08.31v0a2.49,2.49,0,0,0,.11.29v0c0,.09.09.19.14.28l0,0a2.46,2.46,0,0,0,.17.27l0,0a2.65,2.65,0,0,0,.21.26v0a2.83,2.83,0,0,0,.24.25h0a2,2,0,0,0,.26.24h0a5,5,0,0,0,1.09.67h0a5.61,5.61,0,0,0,1.51.42h0a5.5,5.5,0,0,0,1.48,0h0l.35-.06A4.94,4.94,0,0,0,68.61,27h0a5,5,0,0,0,1.07-.68h0l.14-.12h0l.12-.12,0,0,.11-.12,0,0,.1-.12,0,0,.09-.12,0,0,.08-.12,0,0a.41.41,0,0,1,.07-.11l0-.05.06-.11,0-.06,0-.11,0-.06,0-.1,0-.07a1,1,0,0,1,0-.1s0-.06,0-.08l0-.1a.29.29,0,0,0,0-.09l0-.09s0-.06,0-.1a.19.19,0,0,0,0-.08s0-.08,0-.12V24c0-.07,0-.13,0-.19Z" transform="translate(-12.37 -1)"/><path class="cls-8" d="M38.22,7.41c-4.38,0-8.77.06-13.15,0-2.61,0-5.12-.37-6.86,1.93a11.59,11.59,0,0,0-1.89,6.86c0,2,.2,4.51,1.62,6.07.89,1,2.32-.48,1.44-1.45-1.07-1.17-1.06-3.46-1-4.94.05-1.88.38-4.31,1.79-5.7a3.18,3.18,0,0,1,2.59-.74h4.15l11.33-.05a1,1,0,0,0,0-2Z" transform="translate(-12.37 -1)"/><path class="cls-8" d="M22.12,23.94a1,1,0,0,0,0-2,1,1,0,0,0,0,2Z" transform="translate(-12.37 -1)"/><path class="cls-8" d="M44.75,82.63a1,1,0,0,0,0-2,1,1,0,0,0,0,2Z" transform="translate(-12.37 -1)"/><path class="cls-8" d="M31.22,93.55c3.46.35,7.8,1.09,11.1-.42,3.14-1.44,3.48-4.93,3.44-8a1,1,0,0,0-2,0c0,3.13-.32,6-3.95,6.59a34,34,0,0,1-8.55-.22c-1.31-.13-1.3,1.91,0,2Z" transform="translate(-12.37 -1)"/><path class="cls-8" d="M48.38,41q-4.23,7-8.47,13.92a1,1,0,0,0,1.76,1Q45.92,49,50.14,42c.68-1.12-1.08-2.14-1.76-1Z" transform="translate(-12.37 -1)"/><path class="cls-8" d="M39.23,59.61a1,1,0,0,0,0-2,1,1,0,0,0,0,2Z" transform="translate(-12.37 -1)"/><path class="cls-3" d="M67.64,39.22c4.67,3.49,15.22,7.41,18.92.69.55-1,2.16-.26,1.61.75-4.37,7.92-16,4.16-21.68-.09-.91-.69.24-2,1.15-1.35Z" transform="translate(-12.37 -1)"/><path class="cls-3" d="M87.89,39.42a14.14,14.14,0,0,0,2.47,1.06c1,.25,1.36-.16,1.67-1,.39-1.08,2-.32,1.61.74a2.87,2.87,0,0,1-2.89,2.15,10.12,10.12,0,0,1-3.6-1.3.89.89,0,0,1,.74-1.61Z" transform="translate(-12.37 -1)"/><path class="cls-3" d="M86.79,40.73c-1.21-1.72-2.93-3.64-1.7-5.84.55-1,2.16-.25,1.6.75-.83,1.49.75,2.94,1.56,4.08a.89.89,0,0,1-1.46,1Z" transform="translate(-12.37 -1)"/><path class="cls-3" d="M87.48,38.79a5.07,5.07,0,0,0,1.65-2.15c.4-1.07,2-.31,1.61.75a6.87,6.87,0,0,1-2.26,2.86c-.88.72-1.89-.74-1-1.46Z" transform="translate(-12.37 -1)"/></g></g></svg>