<svg xmlns="http://www.w3.org/2000/svg" viewBox="0 0 96.52 92.88"><defs><style>.cls-1{isolation:isolate;}.cls-2{fill:#bcbec0;opacity:0.5;mix-blend-mode:multiply;}.cls-3{fill:#05a098;}.cls-4{fill:#01c6ba;}.cls-5{fill:#01d9cc;}.cls-6{fill:#fff;}.cls-6,.cls-7{fill-rule:evenodd;}.cls-7{fill:#231f20;}</style></defs><title>Numero 8</title><g class="cls-1"><g id="Camada_1" data-name="Camada 1"><path class="cls-2" d="M79.24,95.06c0,1-13.21,1.82-29.5,1.82s-29.5-.82-29.5-1.82,13.21-1.82,29.5-1.82S79.24,94.06,79.24,95.06Z" transform="translate(-1.48 -4)"/><path class="cls-3" d="M32.64,41.39c-.84,9.53-14.57,7.3-20.83,3.78A.67.67,0,0,1,12.49,44c5.24,3,17.46,4.06,18.19-4.3.08-.86,1.42-.87,1.35,0Z" transform="translate(-1.48 -4)"/><path class="cls-3" d="M12.74,38a4.06,4.06,0,0,1,2,3.34c.08,1.69-1.38,2.82-2.73,3.5-.77.39-1.44-.78-.66-1.17,1-.5,2-1.11,2-2.33a2.57,2.57,0,0,0-1.37-2.17c-.73-.46-.06-1.63.67-1.17Z" transform="translate(-1.48 -4)"/><path class="cls-3" d="M9.84,38.19c-1.24-.38-2.65,1.5-2.44,2.65a3.24,3.24,0,0,0,1.69,2,7.75,7.75,0,0,0,2.62.72.68.68,0,0,1-.34,1.31,15.13,15.13,0,0,1-2-.41,6.35,6.35,0,0,1-1.72-1,3.74,3.74,0,0,1-1.63-3c.09-1.89,2.13-4.18,4.14-3.56.83.25.49,1.55-.34,1.3Z" transform="translate(-1.48 -4)"/><path class="cls-3" d="M11.42,44.81c-1.52-.23-3-.54-4.56-.7a39.35,39.35,0,0,0-4.73.16.68.68,0,0,1,0-1.35c1.59,0,3.13-.28,4.72-.16s3.28.5,4.91.75c.86.13.51,1.43-.34,1.3Z" transform="translate(-1.48 -4)"/><path class="cls-3" d="M11.91,45c-1.87,1-4,1.54-5.45,3.21-.56.66-1.5-.3-1-1,1.5-1.77,3.76-2.37,5.73-3.42.77-.4,1.44.77.67,1.17Z" transform="translate(-1.48 -4)"/><path class="cls-3" d="M12.32,44.78c-.45.77-.92,1.53-1.37,2.3a3.58,3.58,0,0,0-.84,2.1c.11.86-1.24.85-1.35,0a3.43,3.43,0,0,1,.64-2.11c.55-1,1.18-2,1.76-3a.67.67,0,0,1,1.16.67Z" transform="translate(-1.48 -4)"/><path class="cls-3" d="M66.84,41.39c.84,9.53,14.57,7.3,20.83,3.78A.67.67,0,0,0,87,44c-5.24,3-17.46,4.06-18.19-4.3-.08-.86-1.42-.87-1.35,0Z" transform="translate(-1.48 -4)"/><path class="cls-3" d="M86.74,38a4.06,4.06,0,0,0-2,3.34c-.08,1.69,1.38,2.82,2.73,3.5.77.39,1.44-.78.67-1.17-1-.5-2-1.11-2.06-2.33a2.57,2.57,0,0,1,1.37-2.17c.73-.46.06-1.63-.67-1.17Z" transform="translate(-1.48 -4)"/><path class="cls-3" d="M89.64,38.19c1.24-.38,2.65,1.5,2.44,2.65a3.24,3.24,0,0,1-1.69,2,7.75,7.75,0,0,1-2.62.72c-.85.2-.5,1.5.34,1.31a15.13,15.13,0,0,0,2-.41,6.35,6.35,0,0,0,1.72-1,3.74,3.74,0,0,0,1.63-3c-.09-1.89-2.13-4.18-4.14-3.56-.83.25-.49,1.55.34,1.3Z" transform="translate(-1.48 -4)"/><path class="cls-3" d="M88.06,44.81c1.52-.23,3-.54,4.56-.7a39.35,39.35,0,0,1,4.73.16.68.68,0,0,0,0-1.35c-1.59,0-3.12-.28-4.72-.16s-3.28.5-4.91.75c-.86.13-.51,1.43.34,1.3Z" transform="translate(-1.48 -4)"/><path class="cls-3" d="M87.57,45c1.87,1,4,1.54,5.45,3.21.56.66,1.5-.3,1-1-1.5-1.77-3.76-2.37-5.73-3.42-.77-.4-1.44.77-.67,1.17Z" transform="translate(-1.48 -4)"/><path class="cls-3" d="M87.16,44.78c.45.77.92,1.53,1.37,2.3a3.58,3.58,0,0,1,.84,2.1c-.11.86,1.24.85,1.35,0a3.43,3.43,0,0,0-.64-2.11c-.55-1-1.18-2-1.76-3a.67.67,0,0,0-1.16.67Z" transform="translate(-1.48 -4)"/><path class="cls-4" d="M77.1,52.31a29.76,29.76,0,0,0-4-6.12,28.78,28.78,0,0,0-2.52-2.3l1.68-1.8a20.45,20.45,0,0,0,3.32-5.28A16.18,16.18,0,0,0,77.15,30,24,24,0,0,0,69.07,11.3,27.62,27.62,0,0,0,50,4a28.65,28.65,0,0,0-19.33,7.19,23,23,0,0,0-8.31,18.2,17.41,17.41,0,0,0,1.85,7.81,20.91,20.91,0,0,0,3,4.89c.75.75,1.38,1.35,1.91,1.8L26.71,46a22.86,22.86,0,0,0-4.55,6.46,19.6,19.6,0,0,0-2.31,9.16Q19.85,74.33,29,82a31.86,31.86,0,0,0,41.46,0q9.15-7.69,9.16-20.28A19.26,19.26,0,0,0,77.1,52.31ZM57,68.75c-1.59,2.06-4,3.08-7.18,3.08s-5.63-1-7.29-3.08a10.35,10.35,0,0,1-2.51-6.67,10.14,10.14,0,0,1,2.51-6.61,8.86,8.86,0,0,1,7.23-3q4.74,0,7.19,3.08A10.22,10.22,0,0,1,57,68.75Zm.16-39.38a7.46,7.46,0,0,1-14.9,0Z" transform="translate(-1.48 -4)"/><path class="cls-5" d="M40.5,11.8C44.45,9,49.88,9,54.38,10.24a1,1,0,0,0,.51-1.83c-5-1.42-11-1.31-15.34,1.76-1,.7,0,2.34,1,1.63Z" transform="translate(-1.48 -4)"/><path class="cls-5" d="M59.17,12a1,1,0,0,0,0-1.9,1,1,0,0,0,0,1.9Z" transform="translate(-1.48 -4)"/><path class="cls-5" d="M72.69,56.51c.53,5.89.36,12.57-3.91,17.14-.83.89.5,2.23,1.34,1.34,4.63-5,5-12,4.46-18.48-.11-1.2-2-1.21-1.89,0Z" transform="translate(-1.48 -4)"/><path class="cls-5" d="M66.48,77.84a1,1,0,0,0,0-1.89.95.95,0,0,0,0,1.89Z" transform="translate(-1.48 -4)"/><path class="cls-5" d="M25.21,69.19c.71,3.66,2.68,7.54,6.05,9.38,1.06.59,2-1,.95-1.63-3-1.62-4.56-5.06-5.18-8.25-.23-1.2-2.05-.69-1.82.5Z" transform="translate(-1.48 -4)"/><path class="cls-6" d="M42,16.86c2.51,1.09,3.81,4.31,2.89,7.3s-3.75,4.44-6.33,3.33-3.82-4.32-2.91-7.23S39.42,15.82,42,16.86Z" transform="translate(-1.48 -4)"/><path class="cls-3" d="M40.31,28.15a4.79,4.79,0,0,1-1.85-.38c-2.66-1.08-4.05-4.49-3.08-7.6a5.56,5.56,0,0,1,2.88-3.48,4.78,4.78,0,0,1,3.87-.11h0c2.68,1.17,4,4.53,3.06,7.66a5.63,5.63,0,0,1-2.93,3.48A4.65,4.65,0,0,1,40.31,28.15Zm0-11.32a4.18,4.18,0,0,0-1.79.41A5,5,0,0,0,36,20.35c-.86,2.77.39,5.91,2.73,6.86a4.07,4.07,0,0,0,3.33,0,5,5,0,0,0,2.6-3.1c.88-2.84-.32-5.88-2.72-6.93A4.21,4.21,0,0,0,40.31,16.83Z" transform="translate(-1.48 -4)"/><path class="cls-7" d="M41,21.15A2.19,2.19,0,0,1,42.37,24a2.16,2.16,0,0,1-2.81,1.33,2.19,2.19,0,0,1-1.32-2.81A2.14,2.14,0,0,1,41,21.15Z" transform="translate(-1.48 -4)"/><path class="cls-6" d="M39.14,23.86a.88.88,0,1,1-1.12.53A.85.85,0,0,1,39.14,23.86Z" transform="translate(-1.48 -4)"/><rect class="cls-4" x="33.18" y="12.13" width="11.47" height="6.41"/><path class="cls-6" d="M60.72,16.86c2.51,1.09,3.81,4.31,2.89,7.3s-3.75,4.44-6.33,3.33-3.81-4.32-2.91-7.23S58.12,15.82,60.72,16.86Z" transform="translate(-1.48 -4)"/><path class="cls-3" d="M59,28.15a4.79,4.79,0,0,1-1.85-.38c-2.66-1.08-4-4.49-3.08-7.6A5.56,5.56,0,0,1,57,16.69a4.78,4.78,0,0,1,3.87-.11h0c2.68,1.17,4,4.53,3.06,7.66A5.63,5.63,0,0,1,61,27.72,4.65,4.65,0,0,1,59,28.15Zm0-11.32a4.18,4.18,0,0,0-1.79.41,5,5,0,0,0-2.56,3.11c-.86,2.77.39,5.91,2.73,6.86a4.07,4.07,0,0,0,3.33,0,5,5,0,0,0,2.6-3.1c.88-2.84-.32-5.88-2.72-6.93A4.21,4.21,0,0,0,59,16.83Z" transform="translate(-1.48 -4)"/><path class="cls-7" d="M59.74,21.15A2.19,2.19,0,0,1,61.07,24a2.15,2.15,0,0,1-2.8,1.33,2.19,2.19,0,0,1-1.33-2.81A2.14,2.14,0,0,1,59.74,21.15Z" transform="translate(-1.48 -4)"/><path class="cls-6" d="M57.84,23.86a.88.88,0,1,1-1.12.53A.85.85,0,0,1,57.84,23.86Z" transform="translate(-1.48 -4)"/><rect class="cls-4" x="51.88" y="12.13" width="11.47" height="6.41"/><path class="cls-7" d="M35.65,18.25a6.69,6.69,0,0,1,4.07-2,8.62,8.62,0,0,1,4.66,1.3c.17.21.32.47-.16.5s-2.4-1.54-4.49-1.33A11.17,11.17,0,0,0,35.65,18.25Z" transform="translate(-1.48 -4)"/><path class="cls-7" d="M63.83,18.25a6.69,6.69,0,0,0-4.07-2,8.62,8.62,0,0,0-4.66,1.3c-.17.21-.32.47.16.5s2.4-1.54,4.49-1.33A11.17,11.17,0,0,1,63.83,18.25Z" transform="translate(-1.48 -4)"/></g></g></svg>