<svg xmlns="http://www.w3.org/2000/svg" viewBox="0 0 63.35 94.52"><defs><style>.cls-1{isolation:isolate;}.cls-2{fill:#bcbec0;opacity:0.5;mix-blend-mode:multiply;}.cls-3{fill:#01c6ba;}.cls-4{fill:#ff1b35;}.cls-5{fill:#231f20;}.cls-5,.cls-6{fill-rule:evenodd;}.cls-6{fill:#fff;}.cls-7{fill:#05a098;}.cls-8{fill:#01d9cc;}</style></defs><title>Numero 3</title><g class="cls-1"><g id="Camada_1" data-name="Camada 1"><path class="cls-2" d="M76,92.93c0,1.43-11.49,2.59-25.66,2.59s-25.67-1.16-25.67-2.59,11.49-2.6,25.67-2.6S76,91.49,76,92.93Z" transform="translate(-18.65 -1)"/><path class="cls-3" d="M72.12,14.93q8.07,8,8.06,17.88T71.33,47.17V48a20.16,20.16,0,0,1,3.35,2.44,23,23,0,0,1,3.57,3.69A17.15,17.15,0,0,1,82,65a25.36,25.36,0,0,1-9.08,20q-9.09,7.91-22.82,7.89T27.39,85a28.46,28.46,0,0,1-6-8.06,18.74,18.74,0,0,1-1.25-3l-.23-1.14a20.45,20.45,0,0,1-1.25-6.13q0-6.59,11.13-6.58c3,0,5,.37,6,1.13,1.29,1,2.43,3,3.41,5.9C40,69.58,42,71.39,45.44,72.6a15.62,15.62,0,0,0,4.77.68q6,0,8.86-2.44a7.15,7.15,0,0,0,2.84-5.5A6.86,6.86,0,0,0,59.12,60a9.88,9.88,0,0,0-6.58-2.33,38,38,0,0,1-5.17-.23,9.18,9.18,0,0,1-2.95-1.13c-2-1-3.06-3.9-3.06-8.75q0-7.93,4.2-9.42a22.42,22.42,0,0,1,5.9-.57q8.63,0,8.63-4.42a6.31,6.31,0,0,0-2.27-4.55,8.83,8.83,0,0,0-6.3-2.15,12.92,12.92,0,0,0-6.42,1.36,6.58,6.58,0,0,0-3,2.72l-.68,1.37Q38.86,37.52,34,37.52a12.36,12.36,0,0,1-6.25-2q-5.67-3.28-5.67-7.61,0-1.82,2.61-7.72a20.44,20.44,0,0,1,2.5-3.57,23.88,23.88,0,0,1,4.71-4.49,27.8,27.8,0,0,1,7.49-3.52A34.15,34.15,0,0,1,50.1,7Q64.07,7,72.12,14.93Z" transform="translate(-18.65 -1)"/><path class="cls-4" d="M35.55,27.72l-.23.06h0a5.6,5.6,0,0,1-.59.12,8.07,8.07,0,0,1-1.41.1h0l-.47,0h-.1l-.49-.05a9.59,9.59,0,0,1-1.35-.29h0l-.44-.13-.35-.12h0a3.42,3.42,0,0,1-.62.67,3.42,3.42,0,0,0,.62-.67h0a10,10,0,0,1-1.28-.59l-.45-.27h0l-.44-.29h0a2.09,2.09,0,0,1-.72.33,2.09,2.09,0,0,0,.72-.33h0a8.05,8.05,0,0,1-1-.83c-.12-.12-.24-.25-.35-.38h0l-.32-.39-.09.43v0c0,.14,0,.28-.05.42v0a2.77,2.77,0,0,0,0,.41v0c0,.14,0,.27,0,.41v0a2.76,2.76,0,0,0,.06.4v0c0,.13.06.26.09.39v0c0,.14.09.27.14.4h0a3.52,3.52,0,0,0,.18.39h0a4.86,4.86,0,0,0,.83,1.2h0a5,5,0,0,0,1.36,1h0a4.71,4.71,0,0,0,.73.31,4.55,4.55,0,0,0,.77.19h.05l.39.05a5.14,5.14,0,0,0,1.36-.08h0a5.44,5.44,0,0,0,1.37-.48h0l.19-.11h0l.18-.1,0,0L34,30l0,0a.91.91,0,0,0,.16-.11l0,0,.14-.11,0,0a.69.69,0,0,0,.13-.11l0,0,.12-.12,0-.05.11-.12,0-.06.1-.11a.18.18,0,0,1,.05-.07l.09-.12.06-.08.08-.11a.41.41,0,0,0,.05-.09l.07-.11.06-.1.06-.11.07-.11a1,1,0,0,1,0-.1s0-.1.07-.14a.2.2,0,0,1,0-.08l.09-.23Z" transform="translate(-18.65 -1)"/><path class="cls-5" d="M23.57,2.87S26.21.61,29,1.06,34,4.28,34,4.28c.06.32.1.72-.44.6-.73-.09-2.23-2.92-4.68-3.12A11.77,11.77,0,0,0,23.57,2.87Z" transform="translate(-18.65 -1)"/><path class="cls-6" d="M29.89,6.25c2.86,2.11,3.57,6.66,1.44,10.09s-6.18,4.54-9,2.35S18.76,12,20.81,8.57,27,4.11,29.89,6.25Z" transform="translate(-18.65 -1)"/><path class="cls-7" d="M25.64,20.12a5.67,5.67,0,0,1-3.49-1.19c-3-2.19-3.73-6.91-1.59-10.51A7.2,7.2,0,0,1,25.22,5a6.09,6.09,0,0,1,4.85,1h0c3,2.24,3.72,7,1.51,10.49A7.24,7.24,0,0,1,26.77,20,5.48,5.48,0,0,1,25.64,20.12Zm.84-14.69a5.52,5.52,0,0,0-1.14.12,6.61,6.61,0,0,0-4.27,3.17c-2,3.35-1.34,7.71,1.44,9.73a5.11,5.11,0,0,0,4.15,1,6.68,6.68,0,0,0,4.41-3.24c2-3.24,1.39-7.67-1.35-9.7A5.51,5.51,0,0,0,26.48,5.43Z" transform="translate(-18.65 -1)"/><path class="cls-5" d="M28.3,12.71a3.37,3.37,0,0,1,.88,4.62,3.28,3.28,0,1,1-5.42-3.71A3.35,3.35,0,0,1,28.3,12.71Z" transform="translate(-18.65 -1)"/><path class="cls-6" d="M26.32,11.36a1.39,1.39,0,0,1,.37,1.9,1.35,1.35,0,1,1-.37-1.9Z" transform="translate(-18.65 -1)"/><path class="cls-6" d="M42.51,10.68c-3.58-.74-7.42,1.81-8.63,5.6s.69,7.56,4.28,8.31,7.39-1.73,8.52-5.56S46,11.48,42.51,10.68Z" transform="translate(-18.65 -1)"/><path class="cls-7" d="M39.47,25a6.48,6.48,0,0,1-1.38-.15,5.91,5.91,0,0,1-3.92-2.77,7.44,7.44,0,0,1-.58-5.91c1.28-4,5.3-6.58,9-5.81h0a6,6,0,0,1,3.91,2.91A7.22,7.22,0,0,1,47,19.12,8.19,8.19,0,0,1,39.47,25Zm1.79-14.18a7.81,7.81,0,0,0-7.09,5.52,6.82,6.82,0,0,0,.51,5.43,5.32,5.32,0,0,0,3.54,2.49c3.35.77,7.09-1.68,8.17-5.34A6.65,6.65,0,0,0,46,13.59,5.45,5.45,0,0,0,42.45,11,5.93,5.93,0,0,0,41.26,10.85Z" transform="translate(-18.65 -1)"/><path class="cls-5" d="M38.64,16a3.35,3.35,0,0,0-4,2.37A3.4,3.4,0,0,0,37,22.46,3.32,3.32,0,0,0,38.64,16Z" transform="translate(-18.65 -1)"/><path class="cls-5" d="M49.16,13.51S49.18,10,47,8.27A8.84,8.84,0,0,0,41.28,6.7c-.35.15-.65.42-.21.78.63.35,3.73-.36,5.5,1.31A11.06,11.06,0,0,1,49.16,13.51Z" transform="translate(-18.65 -1)"/><path class="cls-6" d="M37.65,14.86A1.37,1.37,0,0,1,38,16.75a1.35,1.35,0,0,1-1.86.38,1.36,1.36,0,0,1,1.5-2.27Z" transform="translate(-18.65 -1)"/><path class="cls-8" d="M74.68,32.18c-.39,3.8-1.19,9-5.8,9.72-1.18.18-.68,2,.5,1.8,5.5-.84,6.69-6.93,7.17-11.52.12-1.19-1.75-1.18-1.87,0Z" transform="translate(-18.65 -1)"/><path class="cls-8" d="M69.81,52.6a9.77,9.77,0,0,1,4.77,6.6c.25,1.17,2,.67,1.8-.5A11.6,11.6,0,0,0,70.75,51a.93.93,0,0,0-.94,1.61Z" transform="translate(-18.65 -1)"/><path class="cls-8" d="M77.2,64.12a.93.93,0,0,0,0-1.86.93.93,0,0,0,0,1.86Z" transform="translate(-18.65 -1)"/><path class="cls-8" d="M65.73,43.86a.94.94,0,0,0,0-1.87.94.94,0,0,0,0,1.87Z" transform="translate(-18.65 -1)"/><path class="cls-8" d="M23,65.49a18.43,18.43,0,0,0,4.34,12.33c.77.92,2.09-.4,1.32-1.32a16.41,16.41,0,0,1-3.79-11,.94.94,0,0,0-1.87,0Z" transform="translate(-18.65 -1)"/><path class="cls-8" d="M30.18,80.94a.93.93,0,0,0,0-1.86.93.93,0,0,0,0,1.86Z" transform="translate(-18.65 -1)"/><path class="cls-7" d="M55,51.28c-.25,5.7-7.36,6.47-11.72,5.54-5.66-1.2-10-8.29-9.28-13.82.17-1.46,2.48-1.45,2.3,0-.54,4.49,2.39,9,6.25,11.13,2.76,1.49,10,1.21,10.15-2.92a1.15,1.15,0,0,1,2.3,0Z" transform="translate(-18.65 -1)"/><path class="cls-7" d="M34.65,43.62a5.79,5.79,0,0,1-4-2.35,1.16,1.16,0,0,1,.44-1.57,1.18,1.18,0,0,1,1.57.44,3.77,3.77,0,0,0,2.58,1.25,1.16,1.16,0,0,1-.62,2.23Z" transform="translate(-18.65 -1)"/><path class="cls-7" d="M35.34,41.43c1.08-.55,2.43-2.1,2.32-3.37-.13-1.48,2.18-1.44,2.31,0,.17,2-1.76,4.47-3.49,5.34-1.33.67-2.47-1.34-1.14-2Z" transform="translate(-18.65 -1)"/><path class="cls-7" d="M34.73,42.57a7.19,7.19,0,0,1-.88-3.67,1.16,1.16,0,0,1,2.31,0,4.79,4.79,0,0,0,.58,2.49,1.16,1.16,0,0,1-2,1.14Z" transform="translate(-18.65 -1)"/></g></g></svg>