<svg width="100" height="100" xmlns="http://www.w3.org/2000/svg" viewBox="0 0 63.35 94.52">
    <defs>
        <style>
            .cls-3 {
           fill: #FF7CBA;
            }

            .cls-8 {
              fill: #FFB5D8;
            }
        </style>
    </defs>
    <title>Numero 3</title>
    <g class="cls-1">
        <path class="cls-3"
            d="M72.12,14.93q8.07,8,8.06,17.88T71.33,47.17V48a20.16,20.16,0,0,1,3.35,2.44,23,23,0,0,1,3.57,3.69A17.15,17.15,0,0,1,82,65a25.36,25.36,0,0,1-9.08,20q-9.09,7.91-22.82,7.89T27.39,85a28.46,28.46,0,0,1-6-8.06,18.74,18.74,0,0,1-1.25-3l-.23-1.14a20.45,20.45,0,0,1-1.25-6.13q0-6.59,11.13-6.58c3,0,5,.37,6,1.13,1.29,1,2.43,3,3.41,5.9C40,69.58,42,71.39,45.44,72.6a15.62,15.62,0,0,0,4.77.68q6,0,8.86-2.44a7.15,7.15,0,0,0,2.84-5.5A6.86,6.86,0,0,0,59.12,60a9.88,9.88,0,0,0-6.58-2.33,38,38,0,0,1-5.17-.23,9.18,9.18,0,0,1-2.95-1.13c-2-1-3.06-3.9-3.06-8.75q0-7.93,4.2-9.42a22.42,22.42,0,0,1,5.9-.57q8.63,0,8.63-4.42a6.31,6.31,0,0,0-2.27-4.55,8.83,8.83,0,0,0-6.3-2.15,12.92,12.92,0,0,0-6.42,1.36,6.58,6.58,0,0,0-3,2.72l-.68,1.37Q38.86,37.52,34,37.52a12.36,12.36,0,0,1-6.25-2q-5.67-3.28-5.67-7.61,0-1.82,2.61-7.72a20.44,20.44,0,0,1,2.5-3.57,23.88,23.88,0,0,1,4.71-4.49,27.8,27.8,0,0,1,7.49-3.52A34.15,34.15,0,0,1,50.1,7Q64.07,7,72.12,14.93Z"
            transform="translate(-18.65 -1)" />
        <path class="cls-8"
            d="M74.68,32.18c-.39,3.8-1.19,9-5.8,9.72-1.18.18-.68,2,.5,1.8,5.5-.84,6.69-6.93,7.17-11.52.12-1.19-1.75-1.18-1.87,0Z"
            transform="translate(-18.65 -1)" />
        <path class="cls-8"
            d="M69.81,52.6a9.77,9.77,0,0,1,4.77,6.6c.25,1.17,2,.67,1.8-.5A11.6,11.6,0,0,0,70.75,51a.93.93,0,0,0-.94,1.61Z"
            transform="translate(-18.65 -1)" />
        <path class="cls-8" d="M77.2,64.12a.93.93,0,0,0,0-1.86.93.93,0,0,0,0,1.86Z" transform="translate(-18.65 -1)" />
        <path class="cls-8" d="M65.73,43.86a.94.94,0,0,0,0-1.87.94.94,0,0,0,0,1.87Z" transform="translate(-18.65 -1)" />
        <path class="cls-8"
            d="M23,65.49a18.43,18.43,0,0,0,4.34,12.33c.77.92,2.09-.4,1.32-1.32a16.41,16.41,0,0,1-3.79-11,.94.94,0,0,0-1.87,0Z"
            transform="translate(-18.65 -1)" />
        <path class="cls-8" d="M30.18,80.94a.93.93,0,0,0,0-1.86.93.93,0,0,0,0,1.86Z" transform="translate(-18.65 -1)" />
    </g>
</svg>