<svg width="100" height="100" xmlns="http://www.w3.org/2000/svg" viewBox="0 0 81.32 97.39">
    <defs>
        <style>
            .cls-4 {
               fill: #FF7CBA;
            }
            .cls-8 {
               fill: #FFB5D8;
            }
        </style>
    </defs>
    <title>Numero 7</title>
    <g class="cls-1">
        <g id="Camada_1" data-name="Camada 1">
            <path class="cls-4"
                d="M79.17,9.74Q77.67,5,68.88,5H23.7a14.67,14.67,0,0,0-7.28,1.51A5.23,5.23,0,0,0,14,9.74,20.69,20.69,0,0,0,13.09,16v1.12A9.84,9.84,0,0,0,22.85,27l30.09.21a10.23,10.23,0,0,1-2.14,5.71c-1.84,2.72-3.76,6-6.35,9.79s-5.49,8-8.09,12.49A80.73,80.73,0,0,0,29.1,70.54,54.73,54.73,0,0,0,26.34,87.3a34.53,34.53,0,0,0,.18,4.2,7.09,7.09,0,0,0,1.2,2.83,5.08,5.08,0,0,0,3.32,2,31.8,31.8,0,0,0,6.34.5,31.8,31.8,0,0,0,6.34-.5,5.19,5.19,0,0,0,3.32-2,7.32,7.32,0,0,0,1.26-2.76,23.69,23.69,0,0,0,.25-4.08q0-10.92,11-28.87,4.65-7.4,9.23-14.68a111.12,111.12,0,0,0,7.84-14.75c2.18-5,3.27-9.14,3.27-12.48A22.52,22.52,0,0,0,79.17,9.74Z"
                transform="translate(-12.37 -1)" />
            <path class="cls-8"
                d="M38.22,7.41c-4.38,0-8.77.06-13.15,0-2.61,0-5.12-.37-6.86,1.93a11.59,11.59,0,0,0-1.89,6.86c0,2,.2,4.51,1.62,6.07.89,1,2.32-.48,1.44-1.45-1.07-1.17-1.06-3.46-1-4.94.05-1.88.38-4.31,1.79-5.7a3.18,3.18,0,0,1,2.59-.74h4.15l11.33-.05a1,1,0,0,0,0-2Z"
                transform="translate(-12.37 -1)" />
            <path class="cls-8" d="M22.12,23.94a1,1,0,0,0,0-2,1,1,0,0,0,0,2Z" transform="translate(-12.37 -1)" />
            <path class="cls-8" d="M44.75,82.63a1,1,0,0,0,0-2,1,1,0,0,0,0,2Z" transform="translate(-12.37 -1)" />
            <path class="cls-8"
                d="M31.22,93.55c3.46.35,7.8,1.09,11.1-.42,3.14-1.44,3.48-4.93,3.44-8a1,1,0,0,0-2,0c0,3.13-.32,6-3.95,6.59a34,34,0,0,1-8.55-.22c-1.31-.13-1.3,1.91,0,2Z"
                transform="translate(-12.37 -1)" />
            <path class="cls-8"
                d="M48.38,41q-4.23,7-8.47,13.92a1,1,0,0,0,1.76,1Q45.92,49,50.14,42c.68-1.12-1.08-2.14-1.76-1Z"
                transform="translate(-12.37 -1)" />
            <path class="cls-8" d="M39.23,59.61a1,1,0,0,0,0-2,1,1,0,0,0,0,2Z" transform="translate(-12.37 -1)" />
            </g>
    </g>
</svg>