<svg width="100" height="100" xmlns="http://www.w3.org/2000/svg" viewBox="0 0 72.87 94.31">
    <defs>
        <style>
            .cls-4 {
             fill: #FF7CBA;
            }
            .cls-8 {
            fill: #FFB5D8;
            }
        </style>
    </defs>
    <title>Numero 5</title>
    <g class="cls-1">
        <g id="Camada_1" data-name="Camada 1">
            <path class="cls-4"
                d="M33.78,3l18.53.12H63.76A35.89,35.89,0,0,1,68,3.3,10.08,10.08,0,0,1,71.2,4.46q3.28,1.71,3.29,9.75c0,4.88-1,7.84-3,8.9a8.91,8.91,0,0,1-3,1.16,31.25,31.25,0,0,1-4,.18H43.17c-.17,1-.57,4.06-1.22,9.26a26.77,26.77,0,0,1,4.26-.24q11.58,0,20.84,8.71a28.14,28.14,0,0,1,9.26,21.33A30.11,30.11,0,0,1,67.54,85.2a29.11,29.11,0,0,1-21.81,9.08,37.78,37.78,0,0,1-20.48-5.73,19,19,0,0,1-3-2.31l-1-.86q-4.64-4-4.63-7.31t4.51-7.92c2.44-2.68,4.79-4,7.07-4s5,1.3,8.16,3.9c1.46,1.7,4,2.56,7.62,2.56s6.29-.77,8-2.32a8.07,8.07,0,0,0,2.62-6.4,8,8,0,0,0-2.86-6.46A9.94,9.94,0,0,0,45.24,55a7.91,7.91,0,0,0-5.85,2.19A10.23,10.23,0,0,1,32.75,60a16.7,16.7,0,0,1-7.68-2.31A24.84,24.84,0,0,1,19.4,54a4.28,4.28,0,0,1-1.34-3q0-1.59,2.44-19.62t2.56-18.77a14.48,14.48,0,0,1,.85-2.56,15.84,15.84,0,0,1,1.77-3.29,9,9,0,0,1,3.17-2.62A10.17,10.17,0,0,1,33.78,3Z"
                transform="translate(-16.6 -3)" />
                  <path class="cls-8" d="M65.64,7.46a1,1,0,0,0,0-1.9,1,1,0,0,0,0,1.9Z" transform="translate(-16.6 -3)" />
            <path class="cls-8"
                d="M70.43,70.5a18.64,18.64,0,0,1-6.07,9.64c-.94.79.41,2.13,1.34,1.34A20.23,20.23,0,0,0,72.26,71a1,1,0,0,0-1.83-.5Z"
                transform="translate(-16.6 -3)" />
            <path class="cls-8" d="M72.27,68a1,1,0,0,0,0-1.9,1,1,0,0,0,0,1.9Z" transform="translate(-16.6 -3)" />
            <path class="cls-8"
                d="M22.26,73.07a5.37,5.37,0,0,0,.2,9.66c1.1.51,2.07-1.13,1-1.64a3.48,3.48,0,0,1-.2-6.38c1.08-.57.12-2.21-1-1.64Z"
                transform="translate(-16.6 -3)" />
            <path class="cls-8"
                d="M21,46.42c-.33,1.47-.87,3.83.12,5.14a5.09,5.09,0,0,0,1.77,1.18l3,1.66c1.08.59,2-1,1-1.64s-2.45-1.33-3.67-2-.62-2.7-.37-3.82-1.56-1.7-1.83-.51Z"
                transform="translate(-16.6 -3)" />
            <path class="cls-8"
                d="M69.14,8.05c1.8.15,1.28,4.16,1.27,5.46,0,1.59,0,3.18-.11,4.77-.07,1.22,1.83,1.22,1.9,0,.14-2.28.13-4.57.12-6.85s-.37-5-3.18-5.28c-1.22-.1-1.21,1.8,0,1.9Z"
                transform="translate(-16.6 -3)" />
        </g>
    </g>
</svg>