<svg width="100" height="100" xmlns="http://www.w3.org/2000/svg" viewBox="0 0 96.52 92.88">
    <defs>
        <style>
            .cls-4 {
                fill: #1abb65;
            }

            .cls-5 {
              fill: #1ed471;
            }
        </style>
    </defs>
    <title>Numero 8</title>
    <g class="cls-1">
        <g id="Camada_1" data-name="Camada 1">
            <path class="cls-4"
                d="M77.1,52.31a29.76,29.76,0,0,0-4-6.12,28.78,28.78,0,0,0-2.52-2.3l1.68-1.8a20.45,20.45,0,0,0,3.32-5.28A16.18,16.18,0,0,0,77.15,30,24,24,0,0,0,69.07,11.3,27.62,27.62,0,0,0,50,4a28.65,28.65,0,0,0-19.33,7.19,23,23,0,0,0-8.31,18.2,17.41,17.41,0,0,0,1.85,7.81,20.91,20.91,0,0,0,3,4.89c.75.75,1.38,1.35,1.91,1.8L26.71,46a22.86,22.86,0,0,0-4.55,6.46,19.6,19.6,0,0,0-2.31,9.16Q19.85,74.33,29,82a31.86,31.86,0,0,0,41.46,0q9.15-7.69,9.16-20.28A19.26,19.26,0,0,0,77.1,52.31ZM57,68.75c-1.59,2.06-4,3.08-7.18,3.08s-5.63-1-7.29-3.08a10.35,10.35,0,0,1-2.51-6.67,10.14,10.14,0,0,1,2.51-6.61,8.86,8.86,0,0,1,7.23-3q4.74,0,7.19,3.08A10.22,10.22,0,0,1,57,68.75Zm.16-39.38a7.46,7.46,0,0,1-14.9,0Z"
                transform="translate(-1.48 -4)" />
            <path class="cls-5"
                d="M40.5,11.8C44.45,9,49.88,9,54.38,10.24a1,1,0,0,0,.51-1.83c-5-1.42-11-1.31-15.34,1.76-1,.7,0,2.34,1,1.63Z"
                transform="translate(-1.48 -4)" />
            <path class="cls-5" d="M59.17,12a1,1,0,0,0,0-1.9,1,1,0,0,0,0,1.9Z" transform="translate(-1.48 -4)" />
            <path class="cls-5"
                d="M72.69,56.51c.53,5.89.36,12.57-3.91,17.14-.83.89.5,2.23,1.34,1.34,4.63-5,5-12,4.46-18.48-.11-1.2-2-1.21-1.89,0Z"
                transform="translate(-1.48 -4)" />
            <path class="cls-5" d="M66.48,77.84a1,1,0,0,0,0-1.89.95.95,0,0,0,0,1.89Z" transform="translate(-1.48 -4)" />
            <path class="cls-5"
                d="M25.21,69.19c.71,3.66,2.68,7.54,6.05,9.38,1.06.59,2-1,.95-1.63-3-1.62-4.56-5.06-5.18-8.25-.23-1.2-2.05-.69-1.82.5Z"
                transform="translate(-1.48 -4)" />
        </g>
    </g>
</svg>