<svg width="100" height="100" xmlns="http://www.w3.org/2000/svg" viewBox="0 0 63.44 97.39">
    <defs>
        <style>
            .cls-5 {
                  fill: #1abb65;
            }
            .cls-8 {
                fill: #1ed471;
            }
        </style>
    </defs>
    <title>Numero 9</title>
    <g class="cls-1">
        <g id="Camada_1" data-name="Camada 1">
            <path class="cls-5"
                d="M72.05,18.32q-7.3-9.24-21.82-9.24a27.2,27.2,0,0,0-19.38,7.53,24.71,24.71,0,0,0-8,18.71q0,9.09,7.8,16.34a26.47,26.47,0,0,0,18.67,7.25A20.1,20.1,0,0,0,57.65,57l-.55,1.55q-1.34,3.66-6.09,8.2a18.68,18.68,0,0,1-6.59,3.76,25.47,25.47,0,0,1-8.81,1.55,21.21,21.21,0,0,0-6.42.67Q25,74.08,25,81.84c0,4.58,1,7.49,3.1,8.75,1.18.74,3.18,1.11,6,1.11h.67q20.7,0,32.67-14.18t12-35.33Q79.36,27.58,72.05,18.32ZM59,34.21a8,8,0,1,1-8-8A8,8,0,0,1,59,34.21Z"
                transform="translate(-17.87 -1)" />
            <path class="cls-8"
                d="M61.58,16.25a16.75,16.75,0,0,1,9,10.69,1,1,0,0,0,1.83-.5A18.61,18.61,0,0,0,62.54,14.6c-1.1-.52-2.07,1.12-1,1.65Z"
                transform="translate(-17.87 -1)" />
            <path class="cls-8" d="M73,31.32a1,1,0,0,0,0-1.91,1,1,0,0,0,0,1.91Z" transform="translate(-17.87 -1)" />
            <path class="cls-8"
                d="M58.88,60.7A20.51,20.51,0,0,1,52.18,69c-1,.74,0,2.39,1,1.65a22.81,22.81,0,0,0,7.57-9.44c.46-1.13-1.38-1.62-1.83-.5Z"
                transform="translate(-17.87 -1)" />
            <path class="cls-8"
                d="M28.41,78.15c-.07,1.72-.15,3.44-.22,5.16a5.82,5.82,0,0,0,.7,3.8c1.54,2.17,4.39,1.73,6.61,1.13A1,1,0,0,0,35,86.4c-2.12.58-4.87,1-4.93-2.05,0-2,.16-4.14.26-6.2.05-1.23-1.85-1.22-1.91,0Z"
                transform="translate(-17.87 -1)" />
            <path class="cls-8" d="M38.66,87.92a1,1,0,0,0,0-1.9,1,1,0,0,0,0,1.9Z" transform="translate(-17.87 -1)" />
        </g>
    </g>
</svg>