<svg width="100" height="100" xmlns="http://www.w3.org/2000/svg" viewBox="0 0 70.55 98.15">
    <defs>
        <style>
           .cls-6 {
              fill: #1abb65;
            }
            .cls-8 {
              fill: #1ed471;
            }
        </style>
    </defs>
    <title>Numero 1</title>
    <g class="cls-1">
        <g id="Camada_1" data-name="Camada 1">
            <path class="cls-6"
                d="M60,1.68a10,10,0,0,1,7.14,9.47V75.51a35.83,35.83,0,0,1-.19,4.35,9.78,9.78,0,0,1-1.2,3.34Q64,86.6,55.88,86.61q-7.82,0-9.71-3.28A9.78,9.78,0,0,1,45,79.86a40.79,40.79,0,0,1-.19-4.61v-39l-1.64,1.51c-8.37,5.35-12.87,3.12-15.52.18s-4.88-10.74-.38-14.74c0,0,15.39-15,20.69-19.88C51.36.14,56.13.54,60,1.68Z"
                transform="translate(-14.45 -0.85)" />
            <path class="cls-8" d="M63,77.1a1,1,0,0,0,0-1.89.95.95,0,0,0,0,1.89Z" transform="translate(-14.45 -0.85)" />
            <path class="cls-8"
                d="M61.62,79.21c-1.36,4.16-6.73,3.21-9.94,2.49-1.19-.26-1.7,1.56-.51,1.83,4.38,1,10.53,1.51,12.28-3.82.38-1.16-1.45-1.65-1.83-.5Z"
                transform="translate(-14.45 -0.85)" />
            <path class="cls-8"
                d="M56.78,5.82c4.1.09,5.25,3.22,5.1,6.86-.05,1.22,1.84,1.21,1.89,0a9.85,9.85,0,0,0-1.4-6.22,6.7,6.7,0,0,0-5.59-2.54,1,1,0,0,0,0,1.9Z"
                transform="translate(-14.45 -0.85)" />
            <path class="cls-8" d="M63,16.84A1,1,0,0,0,63,15a.95.95,0,0,0,0,1.89Z"
                transform="translate(-14.45 -0.85)" />
        </g>
    </g>
</svg>